<svg aria-hidden="true" style="position: absolute; width: 0; height: 0; overflow: hidden;" version="1.1" xmlns="http://www.w3.org/2000/svg" xmlns:xlink="http://www.w3.org/1999/xlink">
<defs>
<symbol id="icon-noun_online-shopping_1272567" viewBox="0 0 26 32">
<path d="M9.617 15.305h-6.049c-0.74 0-1.344 0.603-1.344 1.343v4.774c0 0.74 0.603 1.344 1.344 1.344h6.049c0.74 0 1.344-0.603 1.344-1.344v-4.774c0-0.74-0.604-1.343-1.344-1.343zM10.107 21.422c0 0.27-0.22 0.49-0.49 0.49h-6.049c-0.27 0-0.49-0.22-0.49-0.49v-4.774c0-0.27 0.22-0.49 0.49-0.49h6.049c0.27 0 0.49 0.22 0.49 0.49v4.774z"></path>
<path d="M2.050 25.488h21.499c1.092 0 1.981-0.889 1.981-1.981v-21.414c0-1.092-0.889-1.981-1.981-1.981h-21.499c-1.092 0-1.981 0.889-1.981 1.981v21.413c0 1.093 0.889 1.982 1.981 1.982zM23.55 24.634h-21.5c-0.622 0-1.127-0.506-1.127-1.127v-11.257c0.523 0.489 1.241 0.793 2.033 0.793 1.045 0 1.954-0.531 2.462-1.316 0.507 0.786 1.415 1.316 2.461 1.316s1.953-0.531 2.461-1.316c0.507 0.786 1.417 1.316 2.462 1.316 1.044 0 1.953-0.531 2.461-1.316 0.507 0.786 1.415 1.316 2.461 1.316s1.954-0.531 2.462-1.316c0.507 0.786 1.415 1.316 2.461 1.316 0.793 0 1.511-0.303 2.033-0.793v11.257c-0.002 0.622-0.507 1.127-1.129 1.127zM0.924 7.311h4.067v3.010c0 1.029-0.912 1.868-2.034 1.868s-2.033-0.838-2.033-1.868v-3.010zM20.61 7.311h4.067v3.010c0 1.029-0.911 1.868-2.033 1.868s-2.033-0.838-2.033-1.868v-3.010zM15.689 7.311h4.067v3.010c0 1.029-0.912 1.868-2.034 1.868s-2.033-0.838-2.033-1.868v-3.010zM10.766 7.311h4.067v3.010c0 1.029-0.911 1.868-2.033 1.868s-2.034-0.838-2.034-1.868v-3.010zM5.845 7.311h4.067v3.010c0 1.029-0.911 1.868-2.033 1.868s-2.034-0.837-2.034-1.868v-3.010zM2.050 0.965h21.499c0.622 0 1.127 0.506 1.127 1.127v4.365h-23.753v-4.365c0-0.622 0.505-1.127 1.126-1.127z"></path>
<path d="M3.466 5.239c0.842 0 1.527-0.685 1.527-1.527s-0.686-1.527-1.527-1.527c-0.843 0-1.529 0.685-1.529 1.527s0.685 1.527 1.529 1.527zM3.466 3.038c0.371 0 0.673 0.303 0.673 0.674s-0.303 0.674-0.673 0.674c-0.372 0-0.674-0.303-0.674-0.674s0.302-0.674 0.674-0.674z"></path>
<path d="M7.732 5.239c0.842 0 1.527-0.685 1.527-1.527s-0.686-1.527-1.527-1.527c-0.843 0-1.529 0.685-1.529 1.527s0.685 1.527 1.529 1.527zM7.732 3.038c0.371 0 0.673 0.303 0.673 0.674s-0.303 0.674-0.673 0.674c-0.372 0-0.674-0.303-0.674-0.674s0.302-0.674 0.674-0.674z"></path>
<path d="M11.999 5.239c0.842 0 1.527-0.685 1.527-1.527s-0.686-1.527-1.527-1.527c-0.843 0-1.529 0.685-1.529 1.527s0.685 1.527 1.529 1.527zM11.999 3.038c0.371 0 0.673 0.303 0.673 0.674s-0.302 0.674-0.673 0.674c-0.372 0-0.674-0.303-0.674-0.674s0.302-0.674 0.674-0.674z"></path>
<path d="M15.667 4.109h7.743c0.236 0 0.427-0.191 0.427-0.427s-0.192-0.427-0.427-0.427h-7.743c-0.236 0-0.427 0.191-0.427 0.427s0.191 0.427 0.427 0.427z"></path>
<path d="M13.401 16.523h5.934c0.236 0 0.427-0.191 0.427-0.427s-0.192-0.427-0.427-0.427h-5.934c-0.236 0-0.427 0.191-0.427 0.427s0.191 0.427 0.427 0.427z"></path>
<path d="M22.643 17.629h-9.243c-0.236 0-0.427 0.191-0.427 0.427s0.192 0.427 0.427 0.427h9.243c0.236 0 0.427-0.191 0.427-0.427s-0.191-0.427-0.427-0.427z"></path>
<path d="M22.643 19.587h-9.243c-0.236 0-0.427 0.191-0.427 0.427s0.192 0.427 0.427 0.427h9.243c0.236 0 0.427-0.191 0.427-0.427s-0.191-0.427-0.427-0.427z"></path>
<path d="M21.245 21.546h-7.844c-0.236 0-0.427 0.192-0.427 0.427s0.192 0.427 0.427 0.427h7.844c0.236 0 0.427-0.192 0.427-0.427s-0.192-0.427-0.427-0.427z"></path>
</symbol>
<symbol id="icon-businessman-in-apresentation-with-a-graphic-on-a-board" viewBox="0 0 32 32">
<path d="M30.208 4.838h-6.949v-1.345c0-0.371-0.301-0.673-0.672-0.673s-0.673 0.302-0.673 0.673v1.345h-6.949c-0.989 0-1.793 0.805-1.793 1.793v2.361l-0.933-0.311c-0.244-0.087-2.419-0.845-4.423-0.943l-0.267 0.533h-0.007l0.755 5.878-0.897 1.567-0.897-1.567 0.755-5.878h-0.008l-0.267-0.534c-2.078 0.102-4.348 0.916-4.449 0.953-0.037 0.013-0.061 0.041-0.095 0.058-0.074 0.035-0.141 0.075-0.205 0.124-0.055 0.043-0.1 0.087-0.144 0.138-0.049 0.055-0.092 0.111-0.129 0.176s-0.065 0.131-0.090 0.203c-0.014 0.039-0.040 0.070-0.049 0.112l-1.793 8.070c-0.134 0.604 0.246 1.202 0.851 1.337 0.083 0.018 0.164 0.027 0.244 0.027 0.514 0 0.978-0.357 1.094-0.878l1.655-7.446c0.116-0.036 0.246-0.075 0.389-0.114v7.651l-0.892 11.093c-0.059 0.74 0.492 1.389 1.233 1.447 0.037 0.003 0.073 0.004 0.109 0.004 0.693 0 1.282-0.533 1.338-1.237l0.806-10.025c0.167 0.074 0.35 0.116 0.542 0.116s0.377-0.042 0.542-0.116l0.806 10.025c0.056 0.704 0.645 1.237 1.338 1.237 0.037 0 0.073-0.001 0.109-0.004 0.741-0.059 1.292-0.708 1.233-1.447l-0.892-11.093v-7.65c0.57 0.162 0.954 0.299 0.964 0.302 0.004 0.002 0.009 0.001 0.014 0.002 0.004 0.002 0.008 0.005 0.012 0.007l1.643 0.548v6.036c0 0.989 0.804 1.793 1.793 1.793h3.264l-2.862 10.688c-0.096 0.359 0.117 0.728 0.475 0.823 0.058 0.016 0.118 0.023 0.174 0.023 0.297 0 0.569-0.198 0.649-0.499l2.957-11.036h2.292v7.82c0 0.371 0.301 0.673 0.672 0.673s0.673-0.301 0.673-0.673v-7.82h2.292l2.956 11.036c0.081 0.301 0.353 0.499 0.651 0.499 0.056 0 0.116-0.007 0.174-0.023 0.357-0.095 0.572-0.465 0.475-0.823l-2.863-10.688h3.264c0.988 0 1.793-0.804 1.793-1.793v-10.76c0.001-0.989-0.805-1.793-1.793-1.793zM31.104 17.391c0 0.494-0.402 0.897-0.897 0.897h-15.243c-0.495 0-0.897-0.403-0.897-0.897v-5.737l2.839 0.947c0.118 0.039 0.237 0.057 0.355 0.057 0.468 0 0.907-0.298 1.063-0.767 0.026-0.079 0.021-0.158 0.029-0.238l6.738-3.118c0.112-0.052 0.161-0.186 0.109-0.298s-0.185-0.162-0.298-0.109l-6.598 3.053c-0.108-0.32-0.343-0.594-0.688-0.709l-3.549-1.182v-2.66c0-0.494 0.402-0.897 0.897-0.897h15.243c0.495 0 0.897 0.403 0.897 0.897v10.76h-0.001z"></path>
<path d="M7.399 7.496c1.563 0 2.833-1.815 2.833-3.38s-1.27-2.834-2.833-2.834c-1.566 0-2.835 1.27-2.835 2.834s1.27 3.38 2.835 3.38z"></path>
<path d="M23.92 12.812l0.464-0.289-0.454-0.728-0.463 0.289c-0.212-0.227-0.463-0.404-0.736-0.527l0.123-0.531-0.836-0.193-0.122 0.533c-0.3-0.012-0.604 0.038-0.893 0.15l-0.291-0.464-0.728 0.454 0.291 0.464c-0.228 0.212-0.405 0.463-0.527 0.737l-0.532-0.123-0.193 0.836 0.532 0.123c-0.011 0.3 0.039 0.603 0.151 0.893l-0.465 0.29 0.455 0.728 0.465-0.291c0.21 0.229 0.461 0.405 0.736 0.526l-0.123 0.532 0.835 0.194 0.123-0.532c0.299 0.011 0.602-0.038 0.893-0.15l0.289 0.464 0.727-0.454-0.288-0.464c0.227-0.211 0.404-0.464 0.526-0.736l0.532 0.123 0.192-0.836-0.533-0.124c0.011-0.3-0.039-0.604-0.151-0.893zM22.627 14.931c-0.722 0.45-1.672 0.231-2.124-0.491-0.45-0.721-0.231-1.672 0.489-2.123 0.722-0.45 1.673-0.232 2.125 0.49 0.45 0.721 0.23 1.673-0.491 2.123z"></path>
<path d="M28.565 11.449l-0.412 0.14c-0.123-0.215-0.285-0.398-0.475-0.543l0.193-0.39-0.614-0.303-0.192 0.391c-0.23-0.063-0.475-0.081-0.72-0.047l-0.141-0.413-0.647 0.22 0.139 0.413c-0.215 0.122-0.398 0.285-0.543 0.475l-0.392-0.193-0.303 0.613 0.391 0.193c-0.063 0.23-0.081 0.475-0.047 0.721l-0.412 0.14 0.219 0.648 0.414-0.14c0.122 0.215 0.285 0.399 0.475 0.543l-0.193 0.39 0.613 0.303 0.193-0.39c0.231 0.063 0.475 0.081 0.721 0.046l0.139 0.413 0.648-0.219-0.14-0.412c0.215-0.122 0.399-0.285 0.544-0.476l0.391 0.193 0.302-0.613-0.39-0.193c0.063-0.23 0.081-0.475 0.047-0.72l0.412-0.14-0.221-0.65zM26.982 13.644c-0.643 0.218-1.339-0.127-1.558-0.768-0.217-0.642 0.127-1.341 0.769-1.559 0.643-0.217 1.34 0.127 1.558 0.769s-0.127 1.34-0.769 1.558z"></path>
</symbol>
<symbol id="icon-ID-VISUAL" viewBox="0 0 35 32">
<path fill="#fff" style="fill: var(--color1, #fff)" d="M0 0v32h34.631v-32h-34.631z"></path>
<path fill="#808080" style="fill: var(--color2, #808080)" d="M0.805 0.698v0.054h22.228c-0.526-0.221-1.416-0.054-1.987-0.054h-20.242z"></path>
<path fill="#bfbfbf" style="fill: var(--color3, #bfbfbf)" d="M23.034 0.698v8.054h0.054v-5.638c0-0.683 0.21-1.788-0.054-2.416z"></path>
<path fill="#404040" style="fill: var(--color4, #404040)" d="M0.805 0.752v30.819h0.054v-28.134c0-0.754 0.237-1.993-0.054-2.685z"></path>
<path fill="#000" style="fill: var(--color5, #000)" d="M0.859 0.752v30.819h22.174v-3.114h11.007v-10.899h-11.007v-2.899h4.725v-5.852h-4.725v-8.054h-22.174z"></path>
<path fill="#818181" style="fill: var(--color6, #818181)" d="M1.503 1.45v29.423h20.832v-0.054h-20.779v-26.792c0-0.726 0.226-1.911-0.054-2.577z"></path>
<path fill="#fff" style="fill: var(--color1, #fff)" d="M1.557 1.45v29.369h20.725v-2.362h-11.007v-10.953h11.007v-2.792h-4.725v-5.96h4.725v-7.302h-20.725z"></path>
<path fill="#bfbfbf" style="fill: var(--color3, #bfbfbf)" d="M22.282 1.45v7.302h0.054v-5.101c0-0.627 0.188-1.625-0.054-2.201z"></path>
<path fill="#7f7f7f" style="fill: var(--color7, #7f7f7f)" d="M4.403 2.631v0.054h0.215l-0.215-0.054z"></path>
<path fill="#434343" style="fill: var(--color8, #434343)" d="M4.617 2.631v0.054h0.43l-0.43-0.054z"></path>
<path fill="#b7b7b7" style="fill: var(--color9, #b7b7b7)" d="M5.047 2.631v0.054h0.161l-0.161-0.054z"></path>
<path fill="#000" style="fill: var(--color5, #000)" d="M4.295 2.71c-2.776 0.52-1.846 4.842 0.913 4.345 2.215-0.399 2.42-3.548 0.322-4.287-0.361-0.127-0.86-0.128-1.235-0.058z"></path>
<path fill="#3d3d3d" style="fill: var(--color10, #3d3d3d)" d="M4.564 3.329v0.054h0.161l-0.161-0.054z"></path>
<path fill="#757575" style="fill: var(--color11, #757575)" d="M4.725 3.329v0.054h0.161l-0.161-0.054z"></path>
<path fill="#fff" style="fill: var(--color1, #fff)" d="M4.403 3.415c-1.91 0.492-1.052 3.347 0.859 2.892 1.837-0.438 0.993-3.369-0.859-2.892z"></path>
<path fill="#737373" style="fill: var(--color12, #737373)" d="M8.537 3.866v0.054h4.027l-1.235-0.054h-2.792z"></path>
<path fill="#000" style="fill: var(--color5, #000)" d="M8.495 3.959c-0.28 0.131-0.184 0.57 0.096 0.63 0.267 0.057 0.633-0.026 0.912-0.026h2.148c0.272 0 0.819 0.104 1.051-0.055 0.265-0.183 0.067-0.54-0.192-0.581-0.901-0.143-1.932-0.008-2.845-0.008-0.33 0-0.866-0.102-1.169 0.040z"></path>
<path fill="#5c5c5c" style="fill: var(--color13, #5c5c5c)" d="M8.268 4.134v0.215h0.054l-0.054-0.215z"></path>
<path fill="#777" style="fill: var(--color14, #777)" d="M12.832 4.188v0.161h0.054l-0.054-0.161z"></path>
<path fill="#757575" style="fill: var(--color11, #757575)" d="M2.577 4.403v0.161h0.054l-0.054-0.161z"></path>
<path fill="#868686" style="fill: var(--color15, #868686)" d="M6.98 4.456v0.161h0.054l-0.054-0.161z"></path>
<path fill="#888" style="fill: var(--color16, #888)" d="M3.275 4.564v0.483h0.054l-0.054-0.483z"></path>
<path fill="#141414" style="fill: var(--color17, #141414)" d="M8.752 4.564v0.054h3.812l-1.181-0.054h-2.631z"></path>
<path fill="#919191" style="fill: var(--color18, #919191)" d="M6.282 4.617v0.483h0.054l-0.054-0.483z"></path>
<path fill="#7d7d7d" style="fill: var(--color19, #7d7d7d)" d="M8.591 5.101v0.054h3.973l-1.235-0.054h-2.738z"></path>
<path fill="#727272" style="fill: var(--color20, #727272)" d="M2.577 5.154v0.161h0.054l-0.054-0.161z"></path>
<path fill="#757575" style="fill: var(--color11, #757575)" d="M6.98 5.154v0.161h0.054l-0.054-0.161z"></path>
<path fill="#000" style="fill: var(--color5, #000)" d="M8.495 5.194c-0.291 0.136-0.172 0.558 0.096 0.635 0.88 0.252 2.143 0.023 3.059 0.023 0.29 0 0.811 0.097 1.051-0.1 0.245-0.201 0.086-0.546-0.192-0.59-0.901-0.143-1.932-0.008-2.845-0.008-0.33 0-0.866-0.102-1.169 0.040z"></path>
<path fill="#5c5c5c" style="fill: var(--color13, #5c5c5c)" d="M8.268 5.369v0.215h0.054l-0.054-0.215z"></path>
<path fill="#777" style="fill: var(--color14, #777)" d="M12.832 5.423v0.161h0.054l-0.054-0.161z"></path>
<path fill="#bebebe" style="fill: var(--color21, #bebebe)" d="M4.51 6.336v0.054h0.483l-0.483-0.054z"></path>
<path fill="#5a5a5a" style="fill: var(--color22, #5a5a5a)" d="M4.993 6.336v0.054h0.161l-0.161-0.054z"></path>
<path fill="#737373" style="fill: var(--color12, #737373)" d="M5.154 7.034v0.054h0.161l-0.161-0.054z"></path>
<path fill="#9c9c9c" style="fill: var(--color23, #9c9c9c)" d="M4.51 7.087v0.054h0.537l-0.537-0.054z"></path>
<path fill="#808080" style="fill: var(--color2, #808080)" d="M17.557 8.752v5.906h0.054v-5.852h4.725l-1.45-0.054h-3.329zM23.034 8.752v0.054h4.725l-1.45-0.054h-3.275z"></path>
<path fill="#bebebe" style="fill: var(--color21, #bebebe)" d="M27.758 8.752v5.906h-4.725v2.846h0.054v-2.792h4.725v-4.134l-0.054-1.825z"></path>
<path fill="#fff" style="fill: var(--color1, #fff)" d="M18.309 9.503v4.403h8.698v-4.403h-8.698z"></path>
<path fill="#bfbfbf" style="fill: var(--color3, #bfbfbf)" d="M27.007 9.503v4.403h-8.698v0.054h8.752v-3.060l-0.054-1.396z"></path>
<path fill="#000" style="fill: var(--color5, #000)" d="M20.242 10.388c-1.69 0.319-1.218 2.984 0.483 2.68 1.764-0.315 1.282-3.013-0.483-2.68z"></path>
<path fill="#404040" style="fill: var(--color4, #404040)" d="M23.141 10.738v0.054h2.738c-0.705-0.296-1.97-0.054-2.738-0.054z"></path>
<path fill="#000" style="fill: var(--color5, #000)" d="M23.051 10.847c-0.209 0.139-0.129 0.497 0.096 0.566 0.608 0.187 1.505 0.023 2.142 0.023 0.204 0 0.559 0.064 0.719-0.094 0.163-0.16 0.083-0.475-0.132-0.534-0.609-0.167-1.458-0.017-2.091-0.017-0.206 0-0.555-0.065-0.735 0.055z"></path>
<path fill="#404040" style="fill: var(--color4, #404040)" d="M26.094 10.953v0.268h0.054l-0.054-0.268z"></path>
<path fill="#3e3e3e" style="fill: var(--color24, #3e3e3e)" d="M22.872 11.007v0.215h0.054l-0.054-0.215z"></path>
<path fill="#aeaeae" style="fill: var(--color25, #aeaeae)" d="M20.349 11.060v0.054h0.215l-0.215-0.054z"></path>
<path fill="#fff" style="fill: var(--color1, #fff)" d="M20.242 11.154c-0.752 0.297-0.223 1.465 0.535 1.149 0.762-0.318 0.224-1.448-0.535-1.149z"></path>
<path fill="#3f3f3f" style="fill: var(--color26, #3f3f3f)" d="M23.248 11.436v0.054h2.523c-0.654-0.274-1.811-0.054-2.523-0.054z"></path>
<path fill="#818181" style="fill: var(--color6, #818181)" d="M19.114 11.49v0.376h0.054l-0.054-0.376z"></path>
<path fill="#7c7c7c" style="fill: var(--color27, #7c7c7c)" d="M21.852 11.544v0.376h0.054l-0.054-0.376z"></path>
<path fill="#404040" style="fill: var(--color4, #404040)" d="M23.141 11.973v0.054h2.738c-0.705-0.296-1.97-0.054-2.738-0.054z"></path>
<path fill="#000" style="fill: var(--color5, #000)" d="M23.051 12.082c-0.209 0.139-0.129 0.497 0.096 0.566 0.608 0.187 1.505 0.023 2.142 0.023 0.198 0 0.565 0.068 0.719-0.086 0.162-0.162 0.086-0.481-0.132-0.541-0.609-0.167-1.458-0.017-2.091-0.017-0.206 0-0.555-0.065-0.735 0.055z"></path>
<path fill="#414141" style="fill: var(--color28, #414141)" d="M26.094 12.242v0.215h0.054l-0.054-0.215z"></path>
<path fill="#3f3f3f" style="fill: var(--color26, #3f3f3f)" d="M22.872 12.295v0.161h0.054l-0.054-0.161z"></path>
<path fill="#7e7e7e" style="fill: var(--color29, #7e7e7e)" d="M20.349 12.349v0.054h0.322l-0.322-0.054z"></path>
<path fill="#404040" style="fill: var(--color4, #404040)" d="M23.141 12.671v0.054h2.631c-0.679-0.285-1.891-0.054-2.631-0.054z"></path>
<path fill="#676767" style="fill: var(--color30, #676767)" d="M20.671 13.047v0.054h0.161l-0.161-0.054z"></path>
<path fill="#bebebe" style="fill: var(--color21, #bebebe)" d="M17.557 14.658v0.054h4.725v2.792h0.054v-2.846h-4.779z"></path>
<path fill="#3f3f3f" style="fill: var(--color26, #3f3f3f)" d="M11.275 17.503v0.054h11.060l-1.074-0.054h-9.987z"></path>
<path fill="#404040" style="fill: var(--color4, #404040)" d="M23.034 17.503v0.054h11.007v10.899h0.054v-10.953h-11.060z"></path>
<path fill="#3f3f3f" style="fill: var(--color26, #3f3f3f)" d="M11.973 18.201v0.054h21.423l-1.933-0.054h-19.49z"></path>
<path fill="#808080" style="fill: var(--color2, #808080)" d="M11.973 18.255v9.503h0.054v-8.591l-0.054-0.913z"></path>
<path fill="#fff" style="fill: var(--color1, #fff)" d="M12.027 18.255v9.45h21.315v-9.45h-21.315z"></path>
<path fill="#808080" style="fill: var(--color2, #808080)" d="M33.342 18.255v9.503h0.054v-8.591l-0.054-0.913z"></path>
<path fill="#a4a4a4" style="fill: var(--color31, #a4a4a4)" d="M15.195 20.725v0.054h0.537l-0.537-0.054z"></path>
<path fill="#4b4b4b" style="fill: var(--color32, #4b4b4b)" d="M14.962 20.796v0z"></path>
<path fill="#000" style="fill: var(--color5, #000)" d="M15.034 20.802c-1.502 0.241-2.264 2.086-1.478 3.359 0.503 0.814 1.417 1.137 2.337 1.004 1.451-0.209 2.206-1.941 1.558-3.205-0.464-0.905-1.437-1.315-2.417-1.158z"></path>
<path fill="#c2c2c2" style="fill: var(--color33, #c2c2c2)" d="M15.982 20.796v0z"></path>
<path fill="#a6a6a6" style="fill: var(--color34, #a6a6a6)" d="M16.161 20.832v0z"></path>
<path fill="#7b7b7b" style="fill: var(--color35, #7b7b7b)" d="M14.604 20.886v0z"></path>
<path fill="#727272" style="fill: var(--color20, #727272)" d="M16.268 20.886v0z"></path>
<path fill="#5c5c5c" style="fill: var(--color13, #5c5c5c)" d="M14.389 20.993v0z"></path>
<path fill="#808080" style="fill: var(--color2, #808080)" d="M14.282 21.047v0z"></path>
<path fill="#757575" style="fill: var(--color11, #757575)" d="M16.591 21.047v0z"></path>
<path fill="#7b7b7b" style="fill: var(--color35, #7b7b7b)" d="M14.121 21.154v0z"></path>
<path fill="#6c6c6c" style="fill: var(--color36, #6c6c6c)" d="M16.752 21.154v0z"></path>
<path fill="#686868" style="fill: var(--color37, #686868)" d="M25.826 21.369v0.054h5.369l-1.664-0.054h-3.705z"></path>
<path fill="#000" style="fill: var(--color5, #000)" d="M25.726 21.478c-0.295 0.175-0.137 0.557 0.154 0.609 0.374 0.067 0.849-0.020 1.234-0.020h2.846c0.32 0 1.137 0.17 1.364-0.081 0.512-0.568-0.629-0.563-0.88-0.563h-3.383c-0.353 0-1.024-0.128-1.334 0.055z"></path>
<path fill="#7f7f7f" style="fill: var(--color7, #7f7f7f)" d="M31.248 21.423v0z"></path>
<path fill="#7b7b7b" style="fill: var(--color35, #7b7b7b)" d="M15.123 21.494v0z"></path>
<path fill="#b1b1b1" style="fill: var(--color38, #b1b1b1)" d="M15.195 21.477v0.054h0.161l-0.161-0.054z"></path>
<path fill="#fff" style="fill: var(--color1, #fff)" d="M15.356 21.504c-1.976 0.134-1.695 3.118 0.268 2.974 1.911-0.14 1.635-3.104-0.268-2.974z"></path>
<path fill="#c7c7c7" style="fill: var(--color39, #c7c7c7)" d="M15.517 21.477v0.054h0.161l-0.161-0.054z"></path>
<path fill="#808080" style="fill: var(--color2, #808080)" d="M15.678 21.477v0.054h0.161l-0.161-0.054z"></path>
<path fill="#676767" style="fill: var(--color30, #676767)" d="M25.611 21.477v0zM31.356 21.53v0z"></path>
<path fill="#777" style="fill: var(--color14, #777)" d="M14.819 21.584v0z"></path>
<path fill="#828282" style="fill: var(--color40, #828282)" d="M16.054 21.584v0z"></path>
<path fill="#757575" style="fill: var(--color11, #757575)" d="M13.638 21.638v0z"></path>
<path fill="#6e6e6e" style="fill: var(--color41, #6e6e6e)" d="M14.711 21.638v0z"></path>
<path fill="#777" style="fill: var(--color14, #777)" d="M16.161 21.638v0z"></path>
<path fill="#747474" style="fill: var(--color42, #747474)" d="M17.235 21.638v0z"></path>
<path fill="#444" style="fill: var(--color43, #444)" d="M31.409 21.638v0.215h0.054l-0.054-0.215z"></path>
<path fill="#626262" style="fill: var(--color44, #626262)" d="M16.268 21.691v0z"></path>
<path fill="#878787" style="fill: var(--color45, #878787)" d="M25.521 21.727v0z"></path>
<path fill="#a2a2a2" style="fill: var(--color46, #a2a2a2)" d="M14.55 21.745v0z"></path>
<path fill="#a7a7a7" style="fill: var(--color47, #a7a7a7)" d="M16.322 21.745v0z"></path>
<path fill="#6c6c6c" style="fill: var(--color36, #6c6c6c)" d="M13.53 21.799v0zM17.342 21.799v0z"></path>
<path fill="#888" style="fill: var(--color16, #888)" d="M25.557 21.906v0z"></path>
<path fill="#656565" style="fill: var(--color48, #656565)" d="M25.664 22.013v0z"></path>
<path fill="#9e9e9e" style="fill: var(--color49, #9e9e9e)" d="M14.228 22.067v0z"></path>
<path fill="#9f9f9f" style="fill: var(--color50, #9f9f9f)" d="M16.644 22.067v0z"></path>
<path fill="#3c3c3c" style="fill: var(--color51, #3c3c3c)" d="M25.808 22.085v0z"></path>
<path fill="#212121" style="fill: var(--color52, #212121)" d="M26.040 22.067v0.054h4.886l-1.503-0.054h-3.383z"></path>
<path fill="#6b6b6b" style="fill: var(--color53, #6b6b6b)" d="M31.141 22.067v0z"></path>
<path fill="#6d6d6d" style="fill: var(--color54, #6d6d6d)" d="M13.369 22.121v0z"></path>
<path fill="#757575" style="fill: var(--color11, #757575)" d="M17.503 22.121v0z"></path>
<path fill="#959595" style="fill: var(--color55, #959595)" d="M14.121 22.228v0z"></path>
<path fill="#939393" style="fill: var(--color56, #939393)" d="M16.752 22.228v0z"></path>
<path fill="#999" style="fill: var(--color57, #999)" d="M14.067 22.336v0z"></path>
<path fill="#8f8f8f" style="fill: var(--color58, #8f8f8f)" d="M16.805 22.336v0z"></path>
<path fill="#3f3f3f" style="fill: var(--color26, #3f3f3f)" d="M13.28 22.479v0z"></path>
<path fill="#6e6e6e" style="fill: var(--color41, #6e6e6e)" d="M14.013 22.443v0z"></path>
<path fill="#646464" style="fill: var(--color59, #646464)" d="M16.859 22.443v0z"></path>
<path fill="#4b4b4b" style="fill: var(--color32, #4b4b4b)" d="M17.629 22.479v0z"></path>
<path fill="#929292" style="fill: var(--color60, #929292)" d="M13.978 22.64v0z"></path>
<path fill="#838383" style="fill: var(--color61, #838383)" d="M16.931 22.64v0z"></path>
<path fill="#717171" style="fill: var(--color62, #717171)" d="M25.826 22.604v0.054h5.369l-1.664-0.054h-3.705z"></path>
<path fill="#919191" style="fill: var(--color18, #919191)" d="M13.208 22.658v0.591h0.054l-0.054-0.591z"></path>
<path fill="#808080" style="fill: var(--color2, #808080)" d="M17.664 22.658v0.215h0.054l-0.054-0.215z"></path>
<path fill="#000" style="fill: var(--color5, #000)" d="M25.726 22.713c-0.295 0.175-0.137 0.557 0.154 0.609 0.374 0.067 0.849-0.020 1.234-0.020h2.846c0.32 0 1.137 0.17 1.364-0.081 0.512-0.568-0.629-0.563-0.88-0.563h-3.383c-0.353 0-1.024-0.128-1.334 0.055z"></path>
<path fill="#8a8a8a" style="fill: var(--color63, #8a8a8a)" d="M31.248 22.658v0z"></path>
<path fill="#6c6c6c" style="fill: var(--color36, #6c6c6c)" d="M25.611 22.711v0z"></path>
<path fill="#6f6f6f" style="fill: var(--color64, #6f6f6f)" d="M31.356 22.765v0z"></path>
<path fill="#565656" style="fill: var(--color65, #565656)" d="M17.664 22.872v0.376h0.054l-0.054-0.376z"></path>
<path fill="#474747" style="fill: var(--color66, #474747)" d="M31.409 22.872v0.215h0.054l-0.054-0.215z"></path>
<path fill="#8b8b8b" style="fill: var(--color67, #8b8b8b)" d="M25.503 22.926v0.161h0.054l-0.054-0.161z"></path>
<path fill="#828282" style="fill: var(--color40, #828282)" d="M25.557 23.141v0z"></path>
<path fill="#929292" style="fill: var(--color60, #929292)" d="M13.96 23.195v0.161h0.054l-0.054-0.161z"></path>
<path fill="#c0c0c0" style="fill: var(--color68, #c0c0c0)" d="M16.931 23.23v0z"></path>
<path fill="#5d5d5d" style="fill: var(--color69, #5d5d5d)" d="M25.664 23.248v0z"></path>
<path fill="#464646" style="fill: var(--color70, #464646)" d="M16.931 23.338v0z"></path>
<path fill="#383838" style="fill: var(--color71, #383838)" d="M25.808 23.32v0z"></path>
<path fill="#161616" style="fill: var(--color72, #161616)" d="M26.040 23.302v0.054h4.886l-1.503-0.054h-3.383z"></path>
<path fill="#b3b3b3" style="fill: var(--color73, #b3b3b3)" d="M31.177 23.32v0z"></path>
<path fill="#7b7b7b" style="fill: var(--color35, #7b7b7b)" d="M13.28 23.445v0z"></path>
<path fill="#8b8b8b" style="fill: var(--color67, #8b8b8b)" d="M14.013 23.463v0z"></path>
<path fill="#a4a4a4" style="fill: var(--color31, #a4a4a4)" d="M17.629 23.499v0z"></path>
<path fill="#656565" style="fill: var(--color48, #656565)" d="M16.805 23.624v0z"></path>
<path fill="#9b9b9b" style="fill: var(--color74, #9b9b9b)" d="M14.175 23.785v0z"></path>
<path fill="#999" style="fill: var(--color57, #999)" d="M17.503 23.839v0z"></path>
<path fill="#7b7b7b" style="fill: var(--color35, #7b7b7b)" d="M25.826 23.839v0.054h5.315l-1.611-0.054h-3.705z"></path>
<path fill="#000" style="fill: var(--color5, #000)" d="M25.726 23.948c-0.295 0.174-0.139 0.576 0.154 0.631 1.266 0.238 2.79 0.012 4.080 0.012 0.338 0 1.114 0.142 1.364-0.135 0.511-0.568-0.629-0.563-0.88-0.563h-3.383c-0.353 0-1.024-0.128-1.334 0.055z"></path>
<path fill="#949494" style="fill: var(--color75, #949494)" d="M31.248 23.893v0z"></path>
<path fill="#747474" style="fill: var(--color42, #747474)" d="M14.282 23.946v0z"></path>
<path fill="#828282" style="fill: var(--color40, #828282)" d="M16.591 23.946v0z"></path>
<path fill="#989898" style="fill: var(--color76, #989898)" d="M17.45 23.946v0z"></path>
<path fill="#757575" style="fill: var(--color11, #757575)" d="M25.611 23.946v0z"></path>
<path fill="#959595" style="fill: var(--color55, #959595)" d="M14.336 24v0z"></path>
<path fill="#9d9d9d" style="fill: var(--color77, #9d9d9d)" d="M16.537 24v0z"></path>
<path fill="#757575" style="fill: var(--color11, #757575)" d="M31.356 24v0z"></path>
<path fill="#919191" style="fill: var(--color18, #919191)" d="M14.389 24.054v0z"></path>
<path fill="#9a9a9a" style="fill: var(--color78, #9a9a9a)" d="M16.483 24.054v0z"></path>
<path fill="#a8a8a8" style="fill: var(--color79, #a8a8a8)" d="M17.396 24.054v0z"></path>
<path fill="#747474" style="fill: var(--color42, #747474)" d="M14.443 24.107v0z"></path>
<path fill="#787878" style="fill: var(--color80, #787878)" d="M16.43 24.107v0z"></path>
<path fill="#474747" style="fill: var(--color66, #474747)" d="M31.409 24.107v0.215h0.054l-0.054-0.215z"></path>
<path fill="#898989" style="fill: var(--color81, #898989)" d="M25.503 24.161v0.161h0.054l-0.054-0.161zM13.584 24.215v0z"></path>
<path fill="#9f9f9f" style="fill: var(--color50, #9f9f9f)" d="M14.604 24.215v0z"></path>
<path fill="#a5a5a5" style="fill: var(--color82, #a5a5a5)" d="M16.268 24.215v0z"></path>
<path fill="#7b7b7b" style="fill: var(--color35, #7b7b7b)" d="M17.289 24.215v0z"></path>
<path fill="#777" style="fill: var(--color14, #777)" d="M14.765 24.322v0z"></path>
<path fill="#727272" style="fill: var(--color20, #727272)" d="M16.107 24.322v0z"></path>
<path fill="#676767" style="fill: var(--color30, #676767)" d="M14.872 24.376v0z"></path>
<path fill="#636363" style="fill: var(--color83, #636363)" d="M16 24.376v0z"></path>
<path fill="#a9a9a9" style="fill: var(--color84, #a9a9a9)" d="M17.181 24.376v0z"></path>
<path fill="#7d7d7d" style="fill: var(--color19, #7d7d7d)" d="M25.557 24.376v0z"></path>
<path fill="#979797" style="fill: var(--color85, #979797)" d="M13.745 24.43v0z"></path>
<path fill="#939393" style="fill: var(--color56, #939393)" d="M15.069 24.447v0z"></path>
<path fill="#696969" style="fill: var(--color86, #696969)" d="M15.821 24.447v0z"></path>
<path fill="#838383" style="fill: var(--color61, #838383)" d="M17.128 24.43v0z"></path>
<path fill="#7a7a7a" style="fill: var(--color87, #7a7a7a)" d="M13.799 24.483v0z"></path>
<path fill="#3e3e3e" style="fill: var(--color24, #3e3e3e)" d="M15.248 24.483v0.054h0.376l-0.376-0.054z"></path>
<path fill="#6c6c6c" style="fill: var(--color36, #6c6c6c)" d="M17.074 24.483v0z"></path>
<path fill="#5d5d5d" style="fill: var(--color69, #5d5d5d)" d="M13.852 24.537v0z"></path>
<path fill="#565656" style="fill: var(--color65, #565656)" d="M17.020 24.537v0z"></path>
<path fill="#acacac" style="fill: var(--color88, #acacac)" d="M31.177 24.555v0z"></path>
<path fill="#7e7e7e" style="fill: var(--color29, #7e7e7e)" d="M13.906 24.591v0z"></path>
<path fill="#757575" style="fill: var(--color11, #757575)" d="M16.966 24.591v0z"></path>
<path fill="#a0a0a0" style="fill: var(--color89, #a0a0a0)" d="M16.913 24.644v0z"></path>
<path fill="#747474" style="fill: var(--color42, #747474)" d="M14.175 24.805v0z"></path>
<path fill="#737373" style="fill: var(--color12, #737373)" d="M16.698 24.805v0z"></path>
<path fill="#9b9b9b" style="fill: var(--color74, #9b9b9b)" d="M14.443 24.966v0z"></path>
<path fill="#9c9c9c" style="fill: var(--color23, #9c9c9c)" d="M16.43 24.966v0z"></path>
<path fill="#a0a0a0" style="fill: var(--color89, #a0a0a0)" d="M14.55 25.020v0z"></path>
<path fill="#a3a3a3" style="fill: var(--color90, #a3a3a3)" d="M16.322 25.020v0z"></path>
<path fill="#6f6f6f" style="fill: var(--color64, #6f6f6f)" d="M14.711 25.074v0z"></path>
<path fill="#707070" style="fill: var(--color91, #707070)" d="M16.161 25.074v0z"></path>
<path fill="#494949" style="fill: var(--color92, #494949)" d="M14.908 25.145v0z"></path>
<path fill="#8a8a8a" style="fill: var(--color63, #8a8a8a)" d="M15.982 25.145v0z"></path>
<path fill="#aaa" style="fill: var(--color93, #aaa)" d="M15.069 25.199v0z"></path>
<path fill="#404040" style="fill: var(--color4, #404040)" d="M15.141 25.181v0.054h0.644l-0.644-0.054z"></path>
<path fill="#bfbfbf" style="fill: var(--color3, #bfbfbf)" d="M12.027 27.705v0.054h21.315l-1.879-0.054h-19.436zM22.282 28.456v2.362h0.054c0-0.67 0.205-1.747-0.054-2.362zM23.034 28.456v3.114h0.054v-3.060h11.007l-1.074-0.054h-9.987z"></path>
</symbol>
<symbol id="icon-training" viewBox="0 0 32 32">
<path d="M16 14.4c-0.078 0-0.155-0.017-0.227-0.051l-9.067-4.267c-0.187-0.088-0.306-0.276-0.306-0.483s0.119-0.395 0.306-0.483l9.067-4.267c0.144-0.068 0.31-0.068 0.454 0l9.067 4.267c0.187 0.088 0.306 0.276 0.306 0.483s-0.119 0.395-0.306 0.483l-9.067 4.267c-0.072 0.034-0.149 0.051-0.227 0.051zM8.186 9.6l7.814 3.677 7.814-3.677-7.814-3.677z"></path>
<path d="M16 18.667c-0.082 0-0.164-0.019-0.238-0.056l-6.4-3.2c-0.181-0.091-0.295-0.275-0.295-0.477v-4.078c0-0.182 0.093-0.353 0.247-0.45s0.348-0.109 0.513-0.033l6.173 2.905 6.173-2.905c0.165-0.077 0.359-0.066 0.513 0.033 0.155 0.098 0.248 0.268 0.248 0.45v4.078c0 0.202-0.114 0.387-0.295 0.477l-6.4 3.2c-0.075 0.037-0.157 0.056-0.238 0.056zM10.133 14.604l5.867 2.933 5.867-2.933v-2.908l-5.639 2.654c-0.144 0.068-0.31 0.068-0.454 0l-5.639-2.654z"></path>
<path d="M25.067 10.133h-9.067c-0.294 0-0.533-0.239-0.533-0.533s0.239-0.533 0.533-0.533h9.067c0.294 0 0.533 0.239 0.533 0.533s-0.239 0.533-0.533 0.533z"></path>
<path d="M25.067 14.933c-0.294 0-0.533-0.239-0.533-0.533v-4.8c0-0.294 0.239-0.533 0.533-0.533s0.533 0.239 0.533 0.533v4.8c0 0.294-0.239 0.533-0.533 0.533z"></path>
<path d="M16 11.2c-0.294 0-0.533-0.239-0.533-0.533v-2.133c0-0.294 0.239-0.533 0.533-0.533s0.533 0.239 0.533 0.533v2.133c0 0.294-0.239 0.533-0.533 0.533z"></path>
<path d="M23.999 16.533c-0.101 0-0.204-0.029-0.295-0.090-0.245-0.163-0.311-0.494-0.148-0.74l1.067-1.6c0.163-0.245 0.494-0.312 0.74-0.148 0.245 0.163 0.311 0.494 0.148 0.74l-1.067 1.6c-0.103 0.154-0.272 0.237-0.444 0.237z"></path>
<path d="M26.134 16.533c-0.172 0-0.341-0.083-0.444-0.237l-1.067-1.6c-0.163-0.245-0.097-0.577 0.148-0.74 0.245-0.164 0.576-0.098 0.74 0.148l1.067 1.6c0.163 0.245 0.097 0.577-0.148 0.74-0.091 0.061-0.194 0.090-0.295 0.090z"></path>
<path d="M16 16c-0.294 0-0.533-0.239-0.533-0.533v-1.6c0-0.294 0.239-0.533 0.533-0.533s0.533 0.239 0.533 0.533v1.6c0 0.294-0.239 0.533-0.533 0.533z"></path>
<path d="M31.467 20.8h-30.933c-0.294 0-0.533-0.239-0.533-0.533v-17.599c0-1.177 0.957-2.134 2.134-2.134h27.732c1.177 0 2.134 0.957 2.134 2.134v17.599c0 0.294-0.239 0.533-0.533 0.533zM1.067 19.733h29.867v-17.066c0-0.589-0.478-1.067-1.067-1.067h-27.732c-0.589 0-1.067 0.478-1.067 1.067z"></path>
<path d="M29.866 25.067h-27.732c-1.177 0-2.134-0.957-2.134-2.134v-2.666c0-0.294 0.239-0.533 0.533-0.533h30.933c0.294 0 0.533 0.239 0.533 0.533v2.666c0 1.177-0.957 2.134-2.134 2.134zM1.067 20.8v2.133c0 0.589 0.478 1.067 1.067 1.067h27.732c0.589 0 1.067-0.478 1.067-1.067v-2.133z"></path>
<path d="M17.6 22.933h-3.2c-0.294 0-0.533-0.239-0.533-0.533s0.239-0.533 0.533-0.533h3.2c0.294 0 0.533 0.239 0.533 0.533s-0.239 0.533-0.533 0.533z"></path>
<path d="M29.333 20.8h-26.667c-0.294 0-0.533-0.239-0.533-0.533v-17.067c0-0.294 0.239-0.533 0.533-0.533h26.667c0.294 0 0.533 0.239 0.533 0.533v17.067c0 0.294-0.239 0.533-0.533 0.533zM3.2 19.733h25.6v-16h-25.6z"></path>
<path d="M22.933 31.467h-13.867c-0.882 0-1.6-0.718-1.6-1.6s0.718-1.6 1.6-1.6h13.867c0.882 0 1.6 0.718 1.6 1.6s-0.718 1.6-1.6 1.6zM9.067 29.333c-0.294 0-0.533 0.239-0.533 0.533s0.239 0.533 0.533 0.533h13.867c0.294 0 0.533-0.239 0.533-0.533s-0.239-0.533-0.533-0.533z"></path>
<path d="M21.867 29.333h-11.733c-0.294 0-0.533-0.239-0.533-0.533s0.239-0.533 0.533-0.533c1.77 0 2.667-1.256 2.667-3.733 0-0.294 0.239-0.533 0.533-0.533h5.333c0.294 0 0.533 0.239 0.533 0.533 0 2.477 0.897 3.733 2.667 3.733 0.294 0 0.533 0.239 0.533 0.533s-0.239 0.533-0.533 0.533zM12.731 28.267h6.538c-0.657-0.727-1.044-1.811-1.121-3.2h-4.296c-0.078 1.389-0.464 2.473-1.121 3.2z"></path>
</symbol>
<symbol id="icon-visual-merchandising" viewBox="0 0 32 32">
<path d="M30.5 4.5h-29c-0.276 0-0.5 0.224-0.5 0.5v0 19c0 0.276 0.224 0.5 0.5 0.5h16c0.081-0 0.158-0.020 0.226-0.055l-0.003 0.001 0 0 1.894-0.947h5.764l1.895 0.947c0.065 0.034 0.142 0.053 0.223 0.053h3c0.276 0 0.5-0.224 0.5-0.5v0-19c0-0.276-0.224-0.5-0.5-0.5v0zM2 5.5h28v5.5h-28zM20 15h2v7.5h-2zM23 15h2v7.5h-2zM20 14v-2h5v2zM2 12h7v11.5h-7zM17 23.5h-7v-11.5h7zM18 23.191v-11.191h1v10.691zM26 12h1v11.191l-1-0.5zM30 23.5h-2v-11.5h2z"></path>
<path d="M8.158 17.026l-1.5-0.5c-0.047-0.016-0.102-0.026-0.158-0.026h-0.5v-0.525c0.575-0.12 1-0.623 1-1.225 0-0.69-0.56-1.25-1.25-1.25h-0.75v1h0.75c0.138 0 0.25 0.112 0.25 0.25s-0.112 0.25-0.25 0.25v0h-0.25c-0.276 0-0.5 0.224-0.5 0.5v0 1h-0.5c-0.057 0-0.111 0.009-0.162 0.027l0.004-0.001-1.5 0.5c-0.2 0.068-0.342 0.255-0.342 0.474 0 0 0 0 0 0v0 1.5c0 0.276 0.224 0.5 0.5 0.5h0.5v2c0 0.276 0.224 0.5 0.5 0.5h3c0.276 0 0.5-0.224 0.5-0.5v0-2h0.5c0.276 0 0.5-0.224 0.5-0.5v0-1.5c0 0 0 0 0-0 0-0.22-0.142-0.406-0.338-0.473l-0.004-0.001zM7.5 18.5h-0.5c-0.276 0-0.5 0.224-0.5 0.5v0 2h-2v-2c0-0.276-0.224-0.5-0.5-0.5h-0.5v-0.64l1.081-0.36h1.838l1.081 0.36z"></path>
<path d="M11.5 22h1c0 0 0 0 0 0 0.209 0 0.388-0.129 0.463-0.311l0.001-0.003 0.536-1.339 0.536 1.339c0.076 0.186 0.255 0.314 0.464 0.314 0 0 0 0 0 0h1c0.276 0 0.5-0.224 0.5-0.5v0-4.5c0-0.276-0.224-0.5-0.5-0.5h-1.5v-0.525c0.575-0.12 1-0.623 1-1.225 0-0.69-0.56-1.25-1.25-1.25h-0.75v1h0.75c0.138 0 0.25 0.112 0.25 0.25s-0.112 0.25-0.25 0.25v0h-0.25c-0.276 0-0.5 0.224-0.5 0.5v0 1h-1.5c-0.276 0-0.5 0.224-0.5 0.5v0 4.5c0 0.276 0.224 0.5 0.5 0.5v0zM12 17.5h3v3.5h-0.162l-0.874-2.186c-0.076-0.186-0.255-0.314-0.464-0.314s-0.389 0.129-0.463 0.311l-0.001 0.003-0.874 2.186h-0.162z"></path>
<path d="M7 8.5h1.5v1h-1.5v-1z"></path>
<path d="M9.5 8.5h6.5v1h-6.5v-1z"></path>
<path d="M17 8.5h4v1h-4v-1z"></path>
<path d="M5.5 6.5h-2c-0.276 0-0.5 0.224-0.5 0.5v0 2c0 0.276 0.224 0.5 0.5 0.5h2c0.276 0 0.5-0.224 0.5-0.5v0-2c0-0.276-0.224-0.5-0.5-0.5v0zM5 8.5h-1v-1h1z"></path>
</symbol>
<symbol id="icon-branding" viewBox="0 0 32 32">
<path d="M24.5 1h-17c-1.38 0.002-2.498 1.12-2.5 2.5v11h1v-11c0.001-0.828 0.672-1.499 1.5-1.5h17c0.828 0.001 1.499 0.672 1.5 1.5v25c-0.001 0.828-0.672 1.499-1.5 1.5h-15.5v1h15.5c1.38-0.002 2.498-1.12 2.5-2.5v-25c-0.002-1.38-1.12-2.498-2.5-2.5h-0z"></path>
<path d="M25 25.5v-22c0-0.276-0.224-0.5-0.5-0.5h-17c-0.276 0-0.5 0.224-0.5 0.5v0 11h1v-10.5h16v21h-13.5v1h14c0.276 0 0.5-0.224 0.5-0.5v0z"></path>
<path d="M14.5 28c0 0.828 0.672 1.5 1.5 1.5s1.5-0.672 1.5-1.5c0-0.828-0.672-1.5-1.5-1.5v0c-0.828 0.001-1.499 0.672-1.5 1.5v0zM16.5 28c0 0.276-0.224 0.5-0.5 0.5s-0.5-0.224-0.5-0.5c0-0.276 0.224-0.5 0.5-0.5v0c0.276 0 0.5 0.224 0.5 0.5v0z"></path>
<path d="M29.5 5c-0.828 0.001-1.499 0.672-1.5 1.5v18c0 0 0 0 0 0 0 0.081 0.020 0.158 0.054 0.226l-0.001-0.003 1 2c0.084 0.165 0.253 0.276 0.447 0.276s0.363-0.111 0.446-0.274l0.001-0.003 1-2c0.033-0.065 0.053-0.142 0.053-0.224 0 0 0 0 0-0v0-18c-0.001-0.828-0.672-1.499-1.5-1.5h-0zM29.5 6c0.276 0 0.5 0.224 0.5 0.5v1.5h-1v-1.5c0-0.276 0.224-0.5 0.5-0.5h0zM29.5 25.382l-0.5-1v-15.382h1v15.382z"></path>
<path d="M10.737 16.925c0.075 0.047 0.166 0.075 0.263 0.075 0.082 0 0.159-0.020 0.226-0.054l-0.003 0.001 0.141-0.071c0.763 1.847 2.55 3.124 4.635 3.124 1.901 0 3.554-1.060 4.4-2.622l0.013-0.026c0.016-0.008 0.031-0.015 0.047-0.022l0.764-0.382c0.165-0.084 0.276-0.253 0.276-0.447v0-3c0-0 0-0 0-0 0-0.276-0.224-0.5-0.5-0.5-0.082 0-0.159 0.020-0.227 0.054l0.003-0.001-0.141 0.071c-0.763-1.847-2.55-3.124-4.635-3.124-1.901 0-3.554 1.061-4.4 2.622l-0.013 0.026c-0.015 0.008-0.031 0.015-0.046 0.022l-0.764 0.382c-0.165 0.084-0.276 0.253-0.276 0.447v0 3c0 0.179 0.094 0.336 0.235 0.424l0.002 0.001zM16 19c-1.691-0.002-3.136-1.051-3.722-2.533l-0.009-0.027c0.387-0.159 0.837-0.252 1.308-0.252 0.801 0 1.54 0.268 2.132 0.718l-0.009-0.006c0.748 0.569 1.695 0.912 2.722 0.913h0c0.149 0 0.299-0.008 0.448-0.023-0.723 0.746-1.735 1.21-2.855 1.21-0.006 0-0.011 0-0.017-0h0.001zM16 11c1.691 0.002 3.136 1.051 3.722 2.533l0.009 0.027c-0.387 0.159-0.837 0.252-1.308 0.252-0.801 0-1.54-0.268-2.132-0.718l0.009 0.006c-0.748-0.569-1.696-0.912-2.724-0.912-0.158 0-0.313 0.008-0.466 0.024l0.019-0.002c0.723-0.746 1.735-1.21 2.855-1.21 0.006 0 0.011 0 0.017 0h-0.001zM11.5 13.809l0.488-0.244c0.462-0.238 1.008-0.378 1.587-0.378 0.802 0 1.541 0.268 2.134 0.719l-0.009-0.006c0.748 0.57 1.696 0.913 2.724 0.913 0.742 0 1.443-0.179 2.061-0.496l-0.025 0.012 0.040-0.020v1.882l-0.488 0.244c-0.462 0.238-1.009 0.378-1.587 0.378-0.802 0-1.541-0.268-2.134-0.719l0.009 0.006c-0.748-0.57-1.696-0.913-2.724-0.913-0.742 0-1.443 0.179-2.061 0.496l0.025-0.012-0.040 0.020z"></path>
<path d="M10 9h2.5v-1h-3c-0.276 0-0.5 0.224-0.5 0.5v0 3h1z"></path>
<path d="M23 8.5c0-0.276-0.224-0.5-0.5-0.5h-3v1h2.5v2.5h1z"></path>
<path d="M22 21h-2.5v1h3c0.276 0 0.5-0.224 0.5-0.5v0-3h-1z"></path>
<path d="M9 12.5h1v2h-1v-2z"></path>
<path d="M13.5 8h2v1h-2v-1z"></path>
<path d="M16.5 8h2v1h-2v-1z"></path>
<path d="M22 12.5h1v2h-1v-2z"></path>
<path d="M22 15.5h1v2h-1v-2z"></path>
<path d="M16.5 21h2v1h-2v-1z"></path>
<path d="M13.5 21h2v1h-2v-1z"></path>
<path d="M9.5 27.5c0-0 0-0.001 0-0.001 0-0.385-0.145-0.735-0.384-1l0.001 0.001c0.238-0.264 0.383-0.615 0.383-1 0-0.41-0.165-0.781-0.431-1.051l0 0c1.181-0.924 1.932-2.348 1.932-3.949 0-2.762-2.239-5.001-5.001-5.001s-5 2.239-5.001 5v0c-0 0.005-0 0.011-0 0.018 0 1.595 0.751 3.014 1.92 3.923l0.011 0.008c-0.266 0.27-0.431 0.641-0.431 1.051 0 0.385 0.145 0.736 0.384 1.001l-0.001-0.001c-0.238 0.264-0.383 0.616-0.383 1.001 0 0.712 0.497 1.308 1.163 1.461l0.010 0.002 0.88 1.76c0.084 0.165 0.253 0.276 0.447 0.276h2c0.195 0 0.363-0.111 0.446-0.274l0.001-0.003 0.88-1.76c0.676-0.156 1.172-0.752 1.173-1.463v-0zM3.5 25.5c0-0.276 0.224-0.5 0.5-0.5h4c0.276 0 0.5 0.224 0.5 0.5s-0.224 0.5-0.5 0.5v0h-4c-0.276-0-0.5-0.224-0.5-0.5v-0zM5.090 22h1.82l-0.333 2h-1.153zM2 20.5c0-2.209 1.791-3.999 4-3.999s4 1.791 4 4c0 1.498-0.823 2.804-2.042 3.489l-0.020 0.010h-0.347l0.403-2.418c0.004-0.025 0.007-0.053 0.007-0.082 0-0.276-0.224-0.5-0.5-0.5 0 0 0 0 0 0h-3c0 0 0 0 0 0-0.276 0-0.5 0.224-0.5 0.5 0 0.029 0.002 0.057 0.007 0.085l-0-0.003 0.403 2.418h-0.347c-1.239-0.69-2.063-1.992-2.063-3.486 0-0.005 0-0.010 0-0.014v0.001zM4 27h4c0.276 0 0.5 0.224 0.5 0.5s-0.224 0.5-0.5 0.5v0h-4c-0.276 0-0.5-0.224-0.5-0.5s0.224-0.5 0.5-0.5v0zM6.691 30h-1.382l-0.5-1h2.382z"></path>
</symbol>
<symbol id="icon-menu" viewBox="0 0 26 32">
<path d="M3.2 5.333h19.2c0.589 0 1.067-0.478 1.067-1.067s-0.478-1.067-1.067-1.067v0h-19.2c-0.589 0-1.067 0.478-1.067 1.067s0.478 1.067 1.067 1.067v0z"></path>
<path d="M3.2 13.867h19.2c0.589 0 1.067-0.478 1.067-1.067s-0.478-1.067-1.067-1.067v0h-19.2c-0.589 0-1.067 0.478-1.067 1.067s0.478 1.067 1.067 1.067v0z"></path>
<path d="M3.2 22.4h19.2c0.589 0 1.067-0.478 1.067-1.067s-0.478-1.067-1.067-1.067v0h-19.2c-0.589 0-1.067 0.478-1.067 1.067s0.478 1.067 1.067 1.067v0z"></path>
</symbol>
<symbol id="icon-whatsapp-2" viewBox="0 0 32 32">
<path d="M16.041 8.229c-4.241 0-7.689 3.448-7.691 7.688-0.001 1.731 0.507 3.027 1.359 4.383l-0.776 2.837 2.909-0.764c1.304 0.773 2.548 1.237 4.193 1.239 4.237 0 7.689-3.449 7.691-7.688 0.001-4.249-3.433-7.693-7.685-7.695zM20.564 19.221c-0.192 0.54-1.116 1.032-1.56 1.099-0.399 0.060-0.903 0.084-1.456-0.092-0.336-0.107-0.767-0.249-1.317-0.487-2.319-1.001-3.832-3.336-3.948-3.489-0.116-0.155-0.944-1.253-0.944-2.391s0.597-1.697 0.809-1.928c0.212-0.231 0.461-0.289 0.616-0.289l0.443 0.008c0.141 0.007 0.332-0.053 0.52 0.397 0.192 0.463 0.655 1.6 0.712 1.716s0.096 0.251 0.019 0.405c-0.077 0.155-0.116 0.251-0.231 0.385l-0.347 0.405c-0.116 0.115-0.236 0.24-0.101 0.472s0.599 0.988 1.285 1.601c0.883 0.788 1.628 1.032 1.859 1.147s0.365 0.096 0.501-0.057c0.135-0.155 0.577-0.675 0.732-0.907 0.155-0.231 0.308-0.193 0.52-0.116s1.348 0.636 1.579 0.752 0.385 0.173 0.443 0.269c0.060 0.096 0.060 0.559-0.133 1.099zM16 0c-8.836 0-16 7.164-16 16s7.164 16 16 16 16-7.164 16-16-7.164-16-16-16zM16.039 25.173c-1.548 0-3.073-0.389-4.424-1.125l-4.903 1.285 1.312-4.793c-0.809-1.403-1.236-2.995-1.235-4.624 0.001-5.1 4.151-9.249 9.249-9.249 2.475 0.001 4.797 0.964 6.543 2.712 1.747 1.748 2.708 4.072 2.707 6.544-0.001 5.1-4.151 9.251-9.249 9.251z"></path>
</symbol>
<symbol id="icon-close" viewBox="0 0 32 32">
<path d="M25.333 8.547l-1.88-1.88-7.453 7.453-7.453-7.453-1.88 1.88 7.453 7.453-7.453 7.453 1.88 1.88 7.453-7.453 7.453 7.453 1.88-1.88-7.453-7.453z"></path>
</symbol>
<symbol id="icon-gmail" viewBox="0 0 32 32">
<path fill="#d14836" style="fill: var(--color94, #d14836)" d="M32 6v20c0 1.133-0.867 2-2 2h-2v-18.151l-12 8.617-12-8.617v18.151h-2c-1.135 0-2-0.867-2-2v-20c0-0.567 0.216-1.067 0.575-1.424 0.359-0.363 0.86-0.576 1.425-0.576h0.667l13.333 9.667 13.333-9.667h0.667c0.567 0 1.067 0.216 1.425 0.576 0.36 0.357 0.575 0.857 0.575 1.424z"></path>
</symbol>
<symbol id="icon-keyboard_arrow_right" viewBox="0 0 24 24">
<path d="M8.578 16.594l4.594-4.594-4.594-4.594 1.406-1.406 6 6-6 6z"></path>
</symbol>
<symbol id="icon-keyboard_arrow_left" viewBox="0 0 24 24">
<path d="M15.422 16.594l-1.406 1.406-6-6 6-6 1.406 1.406-4.594 4.594z"></path>
</symbol>
<symbol id="icon-checkmark" viewBox="0 0 20 20">
<path d="M0 11l2-2 5 5 11-11 2 2-13 13z"></path>
</symbol>
<symbol id="icon-whatsapp-3" viewBox="0 0 20 20">
<path fill="#e5e5e5" style="fill: var(--color95, #e5e5e5)" d="M0.465 20c-0.112 0-0.222-0.044-0.303-0.126-0.107-0.108-0.148-0.265-0.108-0.412l1.3-4.748c-0.809-1.464-1.236-3.12-1.236-4.801 0.002-5.466 4.451-9.914 9.917-9.914 2.651 0.001 5.142 1.034 7.015 2.908s2.903 4.365 2.902 7.014c-0.002 5.467-4.451 9.914-9.917 9.914 0 0-0.004 0-0.004 0-1.597-0.001-3.179-0.39-4.589-1.127l-4.87 1.277c-0.036 0.009-0.072 0.014-0.108 0.014z"></path>
<path fill="#64b161" style="fill: var(--color96, #64b161)" d="M0.795 19.243l1.3-4.747c-0.802-1.389-1.224-2.965-1.223-4.579 0.002-5.051 4.112-9.16 9.162-9.16 2.451 0.001 4.752 0.955 6.481 2.686s2.682 4.033 2.681 6.48c-0.002 5.051-4.113 9.16-9.162 9.16-0 0 0 0 0 0h-0.004c-1.533-0.001-3.040-0.385-4.378-1.115z"></path>
<path fill="#fff" style="fill: var(--color1, #fff)" d="M0.465 19.574l1.346-4.917c-0.831-1.439-1.267-3.071-1.267-4.744 0.002-5.232 4.26-9.488 9.491-9.488 2.539 0.001 4.922 0.989 6.714 2.783s2.778 4.178 2.777 6.713c-0.002 5.232-4.26 9.489-9.491 9.489-0 0 0 0 0 0h-0.004c-1.588-0.001-3.149-0.399-4.535-1.155zM5.729 16.537l0.288 0.171c1.211 0.719 2.599 1.099 4.015 1.1h0.003c4.348 0 7.887-3.538 7.888-7.887 0.001-2.107-0.819-4.089-2.308-5.58s-3.47-2.312-5.577-2.313c-4.351 0-7.89 3.538-7.892 7.886-0.001 1.49 0.416 2.941 1.206 4.197l0.188 0.298-0.797 2.91z"></path>
<path fill="#fff" style="fill: var(--color1, #fff)" d="M7.663 5.947c-0.178-0.395-0.365-0.403-0.534-0.41-0.138-0.006-0.296-0.006-0.454-0.006s-0.415 0.060-0.632 0.297c-0.217 0.237-0.83 0.811-0.83 1.978s0.85 2.294 0.968 2.453c0.119 0.158 1.641 2.629 4.051 3.58 2.003 0.79 2.411 0.633 2.846 0.593s1.403-0.574 1.601-1.127c0.198-0.554 0.198-1.028 0.138-1.128s-0.217-0.158-0.455-0.277-1.403-0.692-1.62-0.771c-0.217-0.079-0.376-0.119-0.534 0.119s-0.612 0.771-0.751 0.929c-0.138 0.159-0.277 0.178-0.514 0.060s-1.001-0.369-1.907-1.177c-0.705-0.629-1.181-1.405-1.319-1.642s-0.002-0.354 0.104-0.484c0.192-0.233 0.514-0.653 0.593-0.811s0.040-0.297-0.020-0.415c-0.059-0.119-0.52-1.291-0.731-1.76z"></path>
</symbol>
<symbol id="icon-pinterest" viewBox="0 0 20 20">
<path d="M8.617 13.227c-0.526 2.754-1.167 5.394-3.068 6.773-0.586-4.162 0.861-7.287 1.534-10.605-1.147-1.93 0.138-5.812 2.555-4.855 2.975 1.176-2.576 7.172 1.15 7.922 3.891 0.781 5.479-6.75 3.066-9.199-3.485-3.538-10.146-0.083-9.326 4.982 0.199 1.238 1.478 1.613 0.511 3.322-2.231-0.494-2.897-2.254-2.811-4.6 0.138-3.84 3.449-6.527 6.771-6.9 4.201-0.471 8.144 1.543 8.689 5.494 0.613 4.461-1.896 9.293-6.389 8.945-1.218-0.095-1.728-0.699-2.682-1.279z"></path>
</symbol>
<symbol id="icon-home3" viewBox="0 0 32 32">
<path d="M32 19l-6-6v-9h-4v5l-6-6-16 16v1h4v10h10v-6h4v6h10v-10h4z"></path>
</symbol>
<symbol id="icon-bullhorn" viewBox="0 0 32 32">
<path d="M32 13.414c0-6.279-1.837-11.373-4.109-11.413 0.009-0 0.018-0.001 0.027-0.001h-2.592c0 0-6.088 4.573-14.851 6.367-0.268 1.415-0.438 3.102-0.438 5.047s0.171 3.631 0.438 5.047c8.763 1.794 14.851 6.367 14.851 6.367h2.592c-0.009 0-0.018-0.001-0.027-0.001 2.272-0.040 4.109-5.134 4.109-11.413zM27.026 23.102c-0.293 0-0.61-0.304-0.773-0.486-0.395-0.439-0.775-1.124-1.1-1.979-0.727-1.913-1.127-4.478-1.127-7.223s0.4-5.309 1.127-7.223c0.325-0.855 0.705-1.54 1.1-1.979 0.163-0.182 0.48-0.486 0.773-0.486s0.61 0.304 0.773 0.486c0.395 0.439 0.775 1.124 1.1 1.979 0.727 1.913 1.127 4.479 1.127 7.223s-0.4 5.309-1.127 7.223c-0.325 0.855-0.705 1.54-1.1 1.979-0.163 0.181-0.48 0.486-0.773 0.486zM7.869 13.414c0-1.623 0.119-3.201 0.345-4.659-1.48 0.205-2.779 0.323-4.386 0.323-2.096 0-2.096 0-2.096 0l-1.733 2.959v2.755l1.733 2.959c0 0 0 0 2.096 0 1.606 0 2.905 0.118 4.386 0.323-0.226-1.458-0.345-3.036-0.345-4.659zM11.505 20.068l-4-0.766 2.558 10.048c0.132 0.52 0.648 0.782 1.146 0.583l3.705-1.483c0.498-0.199 0.698-0.749 0.444-1.221l-3.853-7.161zM27.026 17.148c-0.113 0-0.235-0.117-0.298-0.187-0.152-0.169-0.299-0.433-0.424-0.763-0.28-0.738-0.434-1.726-0.434-2.784s0.154-2.046 0.434-2.784c0.125-0.33 0.272-0.593 0.424-0.763 0.063-0.070 0.185-0.187 0.298-0.187s0.235 0.117 0.298 0.187c0.152 0.169 0.299 0.433 0.424 0.763 0.28 0.737 0.434 1.726 0.434 2.784s-0.154 2.046-0.434 2.784c-0.125 0.33-0.272 0.593-0.424 0.763-0.063 0.070-0.185 0.187-0.298 0.187z"></path>
</symbol>
<symbol id="icon-phone" viewBox="0 0 32 32">
<path d="M22 20c-2 2-2 4-4 4s-4-2-6-4-4-4-4-6 2-2 4-4-4-8-6-8-6 6-6 6c0 4 4.109 12.109 8 16s12 8 16 8c0 0 6-4 6-6s-6-8-8-6z"></path>
</symbol>
<symbol id="icon-envelop" viewBox="0 0 32 32">
<path d="M29 4h-26c-1.65 0-3 1.35-3 3v20c0 1.65 1.35 3 3 3h26c1.65 0 3-1.35 3-3v-20c0-1.65-1.35-3-3-3zM12.461 17.199l-8.461 6.59v-15.676l8.461 9.086zM5.512 8h20.976l-10.488 7.875-10.488-7.875zM12.79 17.553l3.21 3.447 3.21-3.447 6.58 8.447h-19.579l6.58-8.447zM19.539 17.199l8.461-9.086v15.676l-8.461-6.59z"></path>
</symbol>
<symbol id="icon-quotes-left" viewBox="0 0 32 32">
<path d="M7.031 14c3.866 0 7 3.134 7 7s-3.134 7-7 7-7-3.134-7-7l-0.031-1c0-7.732 6.268-14 14-14v4c-2.671 0-5.182 1.040-7.071 2.929-0.364 0.364-0.695 0.751-0.995 1.157 0.357-0.056 0.724-0.086 1.097-0.086zM25.031 14c3.866 0 7 3.134 7 7s-3.134 7-7 7-7-3.134-7-7l-0.031-1c0-7.732 6.268-14 14-14v4c-2.671 0-5.182 1.040-7.071 2.929-0.364 0.364-0.695 0.751-0.995 1.157 0.358-0.056 0.724-0.086 1.097-0.086z"></path>
</symbol>
<symbol id="icon-quotes-right" viewBox="0 0 32 32">
<path d="M25 20c-3.866 0-7-3.134-7-7s3.134-7 7-7 7 3.134 7 7l0.031 1c0 7.732-6.268 14-14 14v-4c2.671 0 5.182-1.040 7.071-2.929 0.364-0.364 0.695-0.75 0.995-1.157-0.357 0.056-0.724 0.086-1.097 0.086zM7 20c-3.866 0-7-3.134-7-7s3.134-7 7-7 7 3.134 7 7l0.031 1c0 7.732-6.268 14-14 14v-4c2.671 0 5.182-1.040 7.071-2.929 0.364-0.364 0.695-0.75 0.995-1.157-0.357 0.056-0.724 0.086-1.097 0.086z"></path>
</symbol>
<symbol id="icon-clipboard" viewBox="0 0 32 32">
<path d="M29 4h-9c0-2.209-1.791-4-4-4s-4 1.791-4 4h-9c-0.552 0-1 0.448-1 1v26c0 0.552 0.448 1 1 1h26c0.552 0 1-0.448 1-1v-26c0-0.552-0.448-1-1-1zM16 2c1.105 0 2 0.895 2 2s-0.895 2-2 2c-1.105 0-2-0.895-2-2s0.895-2 2-2zM28 30h-24v-24h4v3c0 0.552 0.448 1 1 1h14c0.552 0 1-0.448 1-1v-3h4v24z"></path>
<path d="M14 26.828l-6.414-7.414 1.828-1.828 4.586 3.586 8.586-7.586 1.829 1.828z"></path>
</symbol>
<symbol id="icon-menu1" viewBox="0 0 32 32">
<path d="M2 6h28v6h-28zM2 14h28v6h-28zM2 22h28v6h-28z"></path>
</symbol>
<symbol id="icon-warning" viewBox="0 0 32 32">
<path d="M16 2.899l13.409 26.726h-26.819l13.409-26.726zM16 0c-0.69 0-1.379 0.465-1.903 1.395l-13.659 27.222c-1.046 1.86-0.156 3.383 1.978 3.383h27.166c2.134 0 3.025-1.522 1.978-3.383h0l-13.659-27.222c-0.523-0.93-1.213-1.395-1.903-1.395v0z"></path>
<path d="M18 26c0 1.105-0.895 2-2 2s-2-0.895-2-2c0-1.105 0.895-2 2-2s2 0.895 2 2z"></path>
<path d="M16 22c-1.105 0-2-0.895-2-2v-6c0-1.105 0.895-2 2-2s2 0.895 2 2v6c0 1.105-0.895 2-2 2z"></path>
</symbol>
<symbol id="icon-notification" viewBox="0 0 32 32">
<path d="M16 3c-3.472 0-6.737 1.352-9.192 3.808s-3.808 5.72-3.808 9.192c0 3.472 1.352 6.737 3.808 9.192s5.72 3.808 9.192 3.808c3.472 0 6.737-1.352 9.192-3.808s3.808-5.72 3.808-9.192c0-3.472-1.352-6.737-3.808-9.192s-5.72-3.808-9.192-3.808zM16 0v0c8.837 0 16 7.163 16 16s-7.163 16-16 16c-8.837 0-16-7.163-16-16s7.163-16 16-16zM14 22h4v4h-4zM14 6h4v12h-4z"></path>
</symbol>
<symbol id="icon-blocked" viewBox="0 0 32 32">
<path d="M27.314 4.686c-3.022-3.022-7.040-4.686-11.314-4.686s-8.292 1.664-11.314 4.686c-3.022 3.022-4.686 7.040-4.686 11.314s1.664 8.292 4.686 11.314c3.022 3.022 7.040 4.686 11.314 4.686s8.292-1.664 11.314-4.686c3.022-3.022 4.686-7.040 4.686-11.314s-1.664-8.292-4.686-11.314zM28 16c0 2.588-0.824 4.987-2.222 6.949l-16.727-16.727c1.962-1.399 4.361-2.222 6.949-2.222 6.617 0 12 5.383 12 12zM4 16c0-2.588 0.824-4.987 2.222-6.949l16.727 16.727c-1.962 1.399-4.361 2.222-6.949 2.222-6.617 0-12-5.383-12-12z"></path>
</symbol>
<symbol id="icon-play2" viewBox="0 0 32 32">
<path d="M16 0c-8.837 0-16 7.163-16 16s7.163 16 16 16 16-7.163 16-16-7.163-16-16-16zM16 29c-7.18 0-13-5.82-13-13s5.82-13 13-13 13 5.82 13 13-5.82 13-13 13zM12 9l12 7-12 7z"></path>
</symbol>
<symbol id="icon-arrow-left2" viewBox="0 0 32 32">
<path d="M12.586 27.414l-10-10c-0.781-0.781-0.781-2.047 0-2.828l10-10c0.781-0.781 2.047-0.781 2.828 0s0.781 2.047 0 2.828l-6.586 6.586h19.172c1.105 0 2 0.895 2 2s-0.895 2-2 2h-19.172l6.586 6.586c0.39 0.39 0.586 0.902 0.586 1.414s-0.195 1.024-0.586 1.414c-0.781 0.781-2.047 0.781-2.828 0z"></path>
</symbol>
<symbol id="icon-circle-right" viewBox="0 0 32 32">
<path d="M16 0c-8.837 0-16 7.163-16 16s7.163 16 16 16 16-7.163 16-16-7.163-16-16-16zM16 29c-7.18 0-13-5.82-13-13s5.82-13 13-13 13 5.82 13 13-5.82 13-13 13z"></path>
<path d="M11.086 22.086l2.829 2.829 8.914-8.914-8.914-8.914-2.828 2.828 6.086 6.086z"></path>
</symbol>
<symbol id="icon-circle-left" viewBox="0 0 32 32">
<path d="M16 32c8.837 0 16-7.163 16-16s-7.163-16-16-16-16 7.163-16 16 7.163 16 16 16zM16 3c7.18 0 13 5.82 13 13s-5.82 13-13 13-13-5.82-13-13 5.82-13 13-13z"></path>
<path d="M20.914 9.914l-2.829-2.829-8.914 8.914 8.914 8.914 2.828-2.828-6.086-6.086z"></path>
</symbol>
<symbol id="icon-facebook" viewBox="0 0 32 32">
<path d="M19 6h5v-6h-5c-3.86 0-7 3.14-7 7v3h-4v6h4v16h6v-16h5l1-6h-6v-3c0-0.542 0.458-1 1-1z"></path>
</symbol>
<symbol id="icon-instagram" viewBox="0 0 32 32">
<path d="M16 2.881c4.275 0 4.781 0.019 6.462 0.094 1.563 0.069 2.406 0.331 2.969 0.55 0.744 0.288 1.281 0.638 1.837 1.194 0.563 0.563 0.906 1.094 1.2 1.838 0.219 0.563 0.481 1.412 0.55 2.969 0.075 1.688 0.094 2.194 0.094 6.463s-0.019 4.781-0.094 6.463c-0.069 1.563-0.331 2.406-0.55 2.969-0.288 0.744-0.637 1.281-1.194 1.837-0.563 0.563-1.094 0.906-1.837 1.2-0.563 0.219-1.413 0.481-2.969 0.55-1.688 0.075-2.194 0.094-6.463 0.094s-4.781-0.019-6.463-0.094c-1.563-0.069-2.406-0.331-2.969-0.55-0.744-0.288-1.281-0.637-1.838-1.194-0.563-0.563-0.906-1.094-1.2-1.837-0.219-0.563-0.481-1.413-0.55-2.969-0.075-1.688-0.094-2.194-0.094-6.463s0.019-4.781 0.094-6.463c0.069-1.563 0.331-2.406 0.55-2.969 0.288-0.744 0.638-1.281 1.194-1.838 0.563-0.563 1.094-0.906 1.838-1.2 0.563-0.219 1.412-0.481 2.969-0.55 1.681-0.075 2.188-0.094 6.463-0.094zM16 0c-4.344 0-4.887 0.019-6.594 0.094-1.7 0.075-2.869 0.35-3.881 0.744-1.056 0.412-1.95 0.956-2.837 1.85-0.894 0.888-1.438 1.781-1.85 2.831-0.394 1.019-0.669 2.181-0.744 3.881-0.075 1.713-0.094 2.256-0.094 6.6s0.019 4.887 0.094 6.594c0.075 1.7 0.35 2.869 0.744 3.881 0.413 1.056 0.956 1.95 1.85 2.837 0.887 0.887 1.781 1.438 2.831 1.844 1.019 0.394 2.181 0.669 3.881 0.744 1.706 0.075 2.25 0.094 6.594 0.094s4.888-0.019 6.594-0.094c1.7-0.075 2.869-0.35 3.881-0.744 1.050-0.406 1.944-0.956 2.831-1.844s1.438-1.781 1.844-2.831c0.394-1.019 0.669-2.181 0.744-3.881 0.075-1.706 0.094-2.25 0.094-6.594s-0.019-4.887-0.094-6.594c-0.075-1.7-0.35-2.869-0.744-3.881-0.394-1.063-0.938-1.956-1.831-2.844-0.887-0.887-1.781-1.438-2.831-1.844-1.019-0.394-2.181-0.669-3.881-0.744-1.712-0.081-2.256-0.1-6.6-0.1v0z"></path>
<path d="M16 7.781c-4.537 0-8.219 3.681-8.219 8.219s3.681 8.219 8.219 8.219 8.219-3.681 8.219-8.219c0-4.537-3.681-8.219-8.219-8.219zM16 21.331c-2.944 0-5.331-2.387-5.331-5.331s2.387-5.331 5.331-5.331c2.944 0 5.331 2.387 5.331 5.331s-2.387 5.331-5.331 5.331z"></path>
<path d="M26.462 7.456c0 1.060-0.859 1.919-1.919 1.919s-1.919-0.859-1.919-1.919c0-1.060 0.859-1.919 1.919-1.919s1.919 0.859 1.919 1.919z"></path>
</symbol>
<symbol id="icon-whatsapp" viewBox="0 0 32 32">
<path d="M27.281 4.65c-2.994-3-6.975-4.65-11.219-4.65-8.738 0-15.85 7.112-15.85 15.856 0 2.794 0.731 5.525 2.119 7.925l-2.25 8.219 8.406-2.206c2.319 1.262 4.925 1.931 7.575 1.931h0.006c0 0 0 0 0 0 8.738 0 15.856-7.113 15.856-15.856 0-4.238-1.65-8.219-4.644-11.219zM16.069 29.050v0c-2.369 0-4.688-0.637-6.713-1.837l-0.481-0.288-4.987 1.306 1.331-4.863-0.313-0.5c-1.325-2.094-2.019-4.519-2.019-7.012 0-7.269 5.912-13.181 13.188-13.181 3.519 0 6.831 1.375 9.319 3.862 2.488 2.494 3.856 5.8 3.856 9.325-0.006 7.275-5.919 13.188-13.181 13.188zM23.294 19.175c-0.394-0.2-2.344-1.156-2.706-1.288s-0.625-0.2-0.894 0.2c-0.262 0.394-1.025 1.288-1.256 1.556-0.231 0.262-0.462 0.3-0.856 0.1s-1.675-0.619-3.188-1.969c-1.175-1.050-1.975-2.35-2.206-2.744s-0.025-0.613 0.175-0.806c0.181-0.175 0.394-0.463 0.594-0.694s0.262-0.394 0.394-0.662c0.131-0.262 0.069-0.494-0.031-0.694s-0.894-2.15-1.219-2.944c-0.319-0.775-0.65-0.669-0.894-0.681-0.231-0.012-0.494-0.012-0.756-0.012s-0.694 0.1-1.056 0.494c-0.363 0.394-1.387 1.356-1.387 3.306s1.419 3.831 1.619 4.1c0.2 0.262 2.794 4.269 6.769 5.981 0.944 0.406 1.681 0.65 2.256 0.837 0.95 0.3 1.813 0.256 2.494 0.156 0.762-0.113 2.344-0.956 2.675-1.881s0.331-1.719 0.231-1.881c-0.094-0.175-0.356-0.275-0.756-0.475z"></path>
</symbol>
<symbol id="icon-youtube" viewBox="0 0 32 32">
<path d="M31.681 9.6c0 0-0.313-2.206-1.275-3.175-1.219-1.275-2.581-1.281-3.206-1.356-4.475-0.325-11.194-0.325-11.194-0.325h-0.012c0 0-6.719 0-11.194 0.325-0.625 0.075-1.987 0.081-3.206 1.356-0.963 0.969-1.269 3.175-1.269 3.175s-0.319 2.588-0.319 5.181v2.425c0 2.587 0.319 5.181 0.319 5.181s0.313 2.206 1.269 3.175c1.219 1.275 2.819 1.231 3.531 1.369 2.563 0.244 10.881 0.319 10.881 0.319s6.725-0.012 11.2-0.331c0.625-0.075 1.988-0.081 3.206-1.356 0.962-0.969 1.275-3.175 1.275-3.175s0.319-2.587 0.319-5.181v-2.425c-0.006-2.588-0.325-5.181-0.325-5.181zM12.694 20.15v-8.994l8.644 4.513-8.644 4.481z"></path>
</symbol>
<symbol id="icon-linkedin2" viewBox="0 0 32 32">
<path d="M12 12h5.535v2.837h0.079c0.77-1.381 2.655-2.837 5.464-2.837 5.842 0 6.922 3.637 6.922 8.367v9.633h-5.769v-8.54c0-2.037-0.042-4.657-3.001-4.657-3.005 0-3.463 2.218-3.463 4.509v8.688h-5.767v-18z"></path>
<path d="M2 12h6v18h-6v-18z"></path>
<path d="M8 7c0 1.657-1.343 3-3 3s-3-1.343-3-3c0-1.657 1.343-3 3-3s3 1.343 3 3z"></path>
</symbol>
<symbol id="icon-pinterest2" viewBox="0 0 32 32">
<path d="M16 0c-8.825 0-16 7.175-16 16s7.175 16 16 16 16-7.175 16-16-7.175-16-16-16zM16 29.863c-1.431 0-2.806-0.219-4.106-0.619 0.563-0.919 1.412-2.431 1.725-3.631 0.169-0.65 0.863-3.294 0.863-3.294 0.45 0.863 1.775 1.594 3.175 1.594 4.181 0 7.194-3.844 7.194-8.625 0-4.581-3.738-8.006-8.544-8.006-5.981 0-9.156 4.019-9.156 8.387 0 2.031 1.081 4.563 2.813 5.369 0.262 0.125 0.4 0.069 0.463-0.188 0.044-0.194 0.281-1.131 0.387-1.575 0.031-0.137 0.019-0.262-0.094-0.4-0.575-0.694-1.031-1.975-1.031-3.162 0-3.056 2.313-6.019 6.256-6.019 3.406 0 5.788 2.319 5.788 5.637 0 3.75-1.894 6.35-4.356 6.35-1.363 0-2.381-1.125-2.050-2.506 0.394-1.65 1.15-3.425 1.15-4.613 0-1.063-0.569-1.95-1.756-1.95-1.394 0-2.506 1.438-2.506 3.369 0 1.225 0.412 2.056 0.412 2.056s-1.375 5.806-1.625 6.887c-0.281 1.2-0.169 2.881-0.050 3.975-5.156-2.012-8.813-7.025-8.813-12.9 0-7.656 6.206-13.863 13.862-13.863s13.863 6.206 13.863 13.863c0 7.656-6.206 13.863-13.863 13.863z"></path>
</symbol>
</defs>
</svg>
