<svg aria-hidden="true" style="position: absolute; width: 0; height: 0; overflow: hidden;" version="1.1" xmlns="http://www.w3.org/2000/svg" xmlns:xlink="http://www.w3.org/1999/xlink">
<defs>
<symbol id="icon-VISUAL-MERCH-1" viewBox="0 0 25 32">
<path d="M0.514 1.174v0.587h23.266v-1.174h-23.266v0.587z"></path>
<path d="M17.138 2.099c-0.323 0.345-0.228 0.881 0.183 1.094 0.198 0.103 0.22 0.147 0.22 0.477 0 0.205 0.037 0.367 0.073 0.367 0.044 0 0.073-0.198 0.073-0.44 0-0.404-0.015-0.448-0.176-0.514-0.198-0.073-0.411-0.345-0.411-0.521 0-0.066 0.066-0.205 0.154-0.316 0.191-0.242 0.565-0.264 0.763-0.044 0.147 0.161 0.257 0.191 0.257 0.073 0-0.191-0.301-0.367-0.624-0.367-0.272 0-0.374 0.037-0.514 0.191z"></path>
<path d="M2.422 5.578c0 1.255 0.015 1.468 0.11 1.468s0.11-0.213 0.11-1.468c0-1.255-0.015-1.468-0.11-1.468s-0.11 0.213-0.11 1.468z"></path>
<path d="M3.963 5.578c0 1.255 0.015 1.468 0.11 1.468s0.11-0.213 0.11-1.468c0-1.255-0.015-1.468-0.11-1.468s-0.11 0.213-0.11 1.468z"></path>
<path d="M5.505 5.585c0 1.365 0.007 1.468 0.132 1.446 0.11-0.022 0.125-0.161 0.147-1.475 0.015-1.409 0.015-1.446-0.132-1.446-0.139 0-0.147 0.044-0.147 1.475z"></path>
<path d="M7.119 5.578c0 1.255 0.015 1.468 0.11 1.468s0.11-0.213 0.11-1.468c0-1.255-0.015-1.468-0.11-1.468s-0.11 0.213-0.11 1.468z"></path>
<path d="M8.661 5.578c0 1.255 0.015 1.468 0.11 1.468s0.11-0.213 0.11-1.468c0-1.255-0.015-1.468-0.11-1.468s-0.11 0.213-0.11 1.468z"></path>
<path d="M17.255 4.22c-0.132 0.059-0.396 0.272-0.587 0.47-0.426 0.462-0.771 0.609-1.952 0.851-1.395 0.286-2.694 0.617-2.884 0.741-0.184 0.117-0.455 0.521-0.455 0.668 0 0.051 0.051 0.095 0.11 0.095s0.11-0.051 0.11-0.11c0-0.059 0.095-0.213 0.206-0.338 0.22-0.242 0.705-0.389 3.031-0.873 0.55-0.117 1.138-0.279 1.306-0.36 0.264-0.139 0.426-0.154 1.468-0.154 1.028 0 1.211 0.015 1.453 0.147 0.154 0.081 0.954 0.294 1.784 0.477 2.327 0.514 2.686 0.646 2.745 1.035 0.029 0.169 0.191 0.228 0.191 0.066 0-0.191-0.22-0.521-0.433-0.646-0.22-0.132-1.497-0.462-2.906-0.756-1.108-0.228-1.49-0.396-1.945-0.873-0.308-0.33-0.683-0.55-0.895-0.55-0.051 0.007-0.206 0.051-0.345 0.11z"></path>
<path d="M14.128 6.385c-0.029 0.044-0.029 3.67 0 8.044 0.044 6.701 0.073 7.971 0.154 8.015 0.059 0.037 0.125 0.228 0.154 0.433 0.022 0.206 0.066 0.411 0.095 0.462 0.095 0.147 2.415 0.242 3.927 0.161 0.749-0.044 1.424-0.117 1.505-0.161 0.139-0.073 0.154-0.132 0.117-0.426-0.022-0.191-0.059-2.481-0.088-5.086l-0.051-4.741 0.426-1.277c0.418-1.255 0.976-2.51 1.336-2.98l0.176-0.242-0.154-0.984c-0.081-0.543-0.169-1.035-0.191-1.101-0.037-0.103-0.367-0.117-2.994-0.117-1.615 0-3.259-0.022-3.648-0.044-0.521-0.037-0.719-0.029-0.763 0.044z"></path>
<path d="M2.716 6.752c0 0.36-0.007 0.367-0.22 0.367h-0.22v16.448l0.624-0.044 0.022-8.572c0.015-7.582 0-8.565-0.095-8.565-0.081 0-0.11 0.088-0.11 0.367z"></path>
<path d="M4.257 6.752c0 0.36-0.007 0.367-0.22 0.367h-0.22v16.448l0.624-0.044 0.022-8.572c0.015-7.582 0-8.565-0.095-8.565-0.081 0-0.11 0.088-0.11 0.367z"></path>
<path d="M5.872 6.752v0.367h-0.514l0.015 8.198 0.022 8.206 0.624 0.044v-8.587c0-5.681-0.022-8.595-0.073-8.595-0.037 0-0.073 0.161-0.073 0.367z"></path>
<path d="M7.413 6.752c0 0.36-0.007 0.367-0.22 0.367h-0.22v16.448l0.624-0.044 0.022-8.572c0.015-7.582 0-8.565-0.095-8.565-0.081 0-0.11 0.088-0.11 0.367z"></path>
<path d="M8.954 6.752c0 0.36-0.007 0.367-0.22 0.367h-0.22v16.448l0.624-0.044 0.022-8.572c0.015-7.582 0-8.565-0.095-8.565-0.081 0-0.11 0.088-0.11 0.367z"></path>
<path d="M0.367 26.165v0.404h7.486v-0.807h-7.486v0.404z"></path>
<path d="M8.492 25.813c-0.066 0.059-0.066 0.484-0.007 0.639 0.037 0.103 0.44 0.117 3.743 0.117h3.699v-0.807h-3.692c-2.033 0-3.721 0.022-3.743 0.051z"></path>
<path d="M16.543 25.864c-0.022 0.059-0.029 0.228-0.015 0.382l0.022 0.286 7.45 0.037v-0.807h-3.706c-3.105 0-3.714 0.015-3.75 0.103z"></path>
<path d="M0.367 27.339v0.404h7.486v-0.807h-7.486v0.404z"></path>
<path d="M8.492 26.987c-0.066 0.059-0.066 0.484-0.007 0.639 0.037 0.103 0.44 0.117 3.743 0.117h3.699v-0.807h-3.692c-2.033 0-3.721 0.022-3.743 0.051z"></path>
<path d="M16.543 27.039c-0.022 0.059-0.029 0.228-0.015 0.382l0.022 0.286 7.45 0.037v-0.807h-3.706c-3.105 0-3.714 0.015-3.75 0.103z"></path>
<path d="M0.367 28.514v0.404h7.486v-0.807h-7.486v0.404z"></path>
<path d="M8.492 28.161c-0.066 0.059-0.066 0.484-0.007 0.639 0.037 0.103 0.44 0.117 3.743 0.117h3.699v-0.807h-3.692c-2.033 0-3.721 0.022-3.743 0.051z"></path>
<path d="M16.543 28.213c-0.022 0.059-0.029 0.228-0.015 0.382l0.022 0.286 7.45 0.037v-0.807h-3.706c-3.105 0-3.714 0.015-3.75 0.103z"></path>
<path d="M0.367 29.688v0.404h7.486v-0.807h-7.486v0.404z"></path>
<path d="M8.492 29.336c-0.066 0.059-0.066 0.484-0.007 0.639 0.037 0.103 0.44 0.117 3.743 0.117h3.699v-0.807h-3.692c-2.033 0-3.721 0.022-3.743 0.051z"></path>
<path d="M16.528 29.666l0.022 0.389 7.45 0.037v-0.807h-7.494l0.022 0.382z"></path>
<path d="M0.514 30.972v0.587h23.266v-1.174h-23.266v0.587z"></path>
</symbol>
<symbol id="icon-CONSULTORIA" viewBox="0 0 22 32">
<path d="M10.376 0.231c-0.504 0.207-0.875 0.546-1.064 0.965l-0.089 0.207-1.026 0.019c-0.899 0.014-1.045 0.028-1.209 0.108-0.428 0.212-0.664 0.555-0.701 1.012l-0.019 0.259-1.901 0.028c-1.68 0.019-1.929 0.033-2.179 0.113-0.155 0.047-0.292 0.099-0.306 0.113-0.014 0.019-0.108 0.071-0.212 0.122-0.273 0.136-0.776 0.664-0.955 0.998-0.315 0.593-0.292-0.419-0.292 13.167v12.344l0.113 0.334c0.212 0.631 0.522 1.035 1.059 1.384 0.169 0.113 0.438 0.245 0.593 0.296 0.273 0.085 0.555 0.089 8.753 0.104 9.351 0.014 8.899 0.028 9.525-0.282 0.602-0.301 1.129-0.998 1.275-1.685 0.038-0.193 0.047-3.468 0.038-12.682l-0.014-12.424-0.155-0.358c-0.301-0.701-0.894-1.233-1.6-1.44-0.221-0.066-0.588-0.085-2.165-0.108l-1.901-0.024-0.019-0.226c-0.028-0.376-0.104-0.565-0.311-0.786-0.325-0.348-0.461-0.381-1.562-0.376l-0.946 0.009-0.151-0.226c-0.306-0.456-0.715-0.791-1.158-0.955-0.348-0.127-1.125-0.132-1.421-0.009zM6.287 4.838c0.009 0.518 0.193 0.824 0.64 1.073l0.249 0.136h3.976c4.381 0 4.066 0.019 4.405-0.292 0.249-0.221 0.353-0.489 0.362-0.913l0.009-0.372h1.807c1.713 0 1.821 0.005 2 0.094 0.108 0.052 0.245 0.169 0.311 0.268l0.118 0.174 0.014 12.212c0.009 8.649 0 12.268-0.038 12.391-0.061 0.212-0.235 0.4-0.452 0.489-0.132 0.056-1.525 0.066-8.584 0.066-9.007 0-8.569 0.009-8.833-0.221-0.268-0.235-0.249 0.621-0.249-12.64v-12.207l0.108-0.202c0.075-0.141 0.174-0.24 0.315-0.315 0.202-0.108 0.212-0.108 2.019-0.108h1.816l0.005 0.367z"></path>
<path d="M4.88 10.433c-0.019 0.014-0.033 0.381-0.033 0.809v0.781l12.518-0.024-0.009-0.791-0.014-0.786-6.216-0.014c-3.416-0.005-6.231 0.005-6.245 0.024z"></path>
<path d="M4.866 13.285c-0.009 0.033-0.014 0.4-0.009 0.809l0.014 0.753 12.494 0.024-0.009-0.809-0.014-0.814-6.226-0.014c-5.059-0.009-6.231 0-6.249 0.052z"></path>
<path d="M4.856 16.974l0.014 0.791h12.471l0.014-0.791 0.009-0.786h-12.518l0.009 0.786z"></path>
<path d="M12.259 22.221c-1.233 1.224-2.264 2.235-2.287 2.245-0.028 0.005-0.546-0.485-1.158-1.101l-1.115-1.111-0.555 0.555-0.555 0.551 0.108 0.118c0.056 0.061 0.814 0.828 1.685 1.704l1.581 1.586 2.809-2.805c1.544-1.548 2.809-2.828 2.814-2.852 0-0.038-0.838-0.918-1.007-1.054-0.071-0.056-0.348 0.207-2.32 2.165z"></path>
</symbol>
<symbol id="icon-ID-VISUAL" viewBox="0 0 42 32">
<path d="M11.472 0.492c-0.164 0.129-0.362 0.293-0.431 0.362-0.112 0.112-0.129 0.837-0.155 5.261-0.017 3.545 0 5.236 0.069 5.443 0.095 0.302 0.518 0.716 0.742 0.716 0.069 0 0.121 0.034 0.121 0.078 0 0.034 4.778 0.069 10.609 0.069 7.409 0 10.609-0.026 10.609-0.095 0-0.043 0.035-0.069 0.078-0.043s0.224-0.069 0.405-0.216c0.25-0.19 0.362-0.371 0.44-0.664 0.138-0.5 0.164-9.807 0.026-9.893-0.043-0.026-0.060-0.103-0.035-0.172 0.069-0.181-0.19-0.569-0.569-0.845l-0.328-0.233h-21.279l-0.302 0.233zM17.423 2.234c0.405 0.129 1.001 0.664 1.164 1.061 0.311 0.768 0.060 1.768-0.569 2.225-1.44 1.035-3.45 0.345-3.674-1.259-0.078-0.587 0.397-1.673 0.733-1.673 0.052 0 0.104-0.043 0.121-0.095s0.242-0.164 0.5-0.259c0.5-0.172 1.147-0.172 1.725 0zM32 4.658c0 0.173-0.043 0.173-3.252 0.155-3.027-0.026-3.26-0.035-3.286-0.181-0.026-0.138 0.172-0.147 3.252-0.147 3.235 0 3.286 0 3.286 0.173zM32 6.124c0 0.173-0.060 0.173-4.597 0.173s-4.597 0-4.597-0.173c0-0.173 0.060-0.173 4.597-0.173s4.597 0 4.597 0.173zM17.941 6.65c1.371 0.466 2.346 1.242 2.846 2.268 0.241 0.483 0.293 0.707 0.328 1.311l0.043 0.725-9.212-0.043-0.026-0.259c-0.069-0.587 0.336-1.88 0.725-2.346 0.095-0.104 0.224-0.259 0.302-0.345 0.552-0.63 1.57-1.182 2.622-1.406 0.449-0.104 1.984-0.043 2.372 0.095zM32 7.59c0 0.173-0.060 0.173-4.606 0.173-4.563 0-4.606 0-4.563-0.173s0.121-0.173 4.606-0.173c4.502 0 4.563 0 4.563 0.173zM32 9.1c0 0.112-0.569 0.129-4.615 0.129s-4.615-0.017-4.615-0.129c0-0.112 0.569-0.129 4.615-0.129s4.615 0.017 4.615 0.129zM32.086 10.566c0 0.112-0.569 0.129-4.606 0.129-2.536 0-4.632-0.034-4.658-0.078-0.026-0.034-0.026-0.095 0.009-0.129 0.026-0.026 2.122-0.052 4.658-0.052 4.028 0 4.597 0.017 4.597 0.129z"></path>
<path d="M16.198 15.112c-0.138 0.043-0.242 0.121-0.242 0.164s-0.060 0.078-0.138 0.078c-0.078 0-0.647 0.25-1.268 0.552-0.63 0.302-1.225 0.578-1.328 0.612-0.112 0.026-0.198 0.095-0.198 0.138s-0.026 0.069-0.060 0.060c-0.069-0.017-0.932 0.38-2.743 1.277-0.612 0.302-1.57 0.759-2.113 1.018s-1.509 0.725-2.148 1.035c-0.638 0.311-1.199 0.569-1.259 0.569s-0.198 0.069-0.311 0.155c-0.112 0.086-0.457 0.267-0.768 0.397-0.311 0.138-0.612 0.285-0.681 0.336-0.060 0.052-0.164 0.104-0.224 0.112-0.216 0.035-2.303 1.113-2.346 1.216-0.034 0.086 0.19 0.595 0.319 0.716 0.112 0.104 1.38 2.156 1.38 2.234 0 0.043 0.034 0.095 0.069 0.112 0.060 0.026 1.225 1.837 1.225 1.915 0 0.017 0.172 0.293 0.388 0.621 0.457 0.699 0.345 0.518 1.294 2.018 0.104 0.164 0.276 0.44 0.371 0.612 0.38 0.638 0.414 0.638 1.251 0.25 0.405-0.19 0.768-0.38 0.785-0.423 0.026-0.043 0.155-0.104 0.276-0.129 0.121-0.035 1.018-0.449 1.984-0.914 0.966-0.474 1.794-0.863 1.837-0.863s0.095-0.035 0.112-0.069c0.017-0.043 0.38-0.216 0.811-0.397l0.785-0.328 1.527 0.19c0.837 0.104 1.587 0.172 1.673 0.155 0.078-0.009 0.19 0.009 0.241 0.035 0.052 0.035 0.362 0.078 0.69 0.104 0.328 0.017 0.656 0.060 0.725 0.078 0.129 0.043 3.286 0.492 3.752 0.535 0.147 0.017 0.319 0.043 0.388 0.069s0.285 0.069 0.474 0.104c0.69 0.104 1.846 0.319 3.321 0.63 1.604 0.336 2.51 0.397 3.027 0.19 0.164-0.060 0.802-0.354 1.415-0.656 0.621-0.293 1.57-0.75 2.113-1.009s1.527-0.733 2.174-1.044c0.656-0.311 1.225-0.569 1.259-0.569 0.043 0 0.172-0.069 0.285-0.164 0.112-0.086 0.302-0.19 0.423-0.224s0.681-0.293 1.251-0.569c0.569-0.285 1.087-0.509 1.139-0.509s0.112-0.026 0.129-0.069c0.017-0.035 0.328-0.207 0.69-0.388 0.604-0.302 1.363-0.914 1.363-1.104 0-0.043 0.035-0.078 0.069-0.078s0.138-0.181 0.216-0.414c0.164-0.44 0.207-1.57 0.060-1.57-0.052 0-0.078-0.026-0.069-0.069 0.009-0.035-0.026-0.147-0.086-0.259-0.060-0.104-0.086-0.19-0.060-0.19 0.043 0-0.242-0.336-0.612-0.725-0.198-0.207-0.768-0.5-1.277-0.656-0.207-0.069-0.587-0.095-0.992-0.060-0.699 0.052-0.716 0.052-3.692 1.492-0.63 0.302-1.182 0.552-1.216 0.552-0.043 0-0.172 0.069-0.285 0.164-0.112 0.086-0.302 0.19-0.423 0.224s-0.681 0.293-1.251 0.569c-0.569 0.285-1.087 0.509-1.139 0.509s-0.112 0.026-0.129 0.060c-0.009 0.043-0.319 0.207-0.673 0.371s-0.673 0.336-0.707 0.388c-0.035 0.043-0.069 0.060-0.069 0.017 0-0.035-0.112-0.009-0.241 0.060-0.224 0.112-0.483 0.095-2.829-0.25-3.036-0.44-3.372-0.518-3.649-0.811-0.19-0.198-0.198-0.267-0.155-0.811 0.060-0.725 0.25-0.975 0.785-1.052 0.19-0.026 1.484 0.009 2.855 0.069 2.717 0.121 3.036 0.095 3.579-0.293 0.75-0.543 1.13-1.13 1.19-1.846 0.017-0.302-0.009-0.673-0.060-0.845-0.198-0.595-1.104-1.242-1.846-1.302-0.198-0.017-0.423-0.052-0.492-0.078s-0.69-0.147-1.38-0.267c-0.69-0.121-2.243-0.397-3.45-0.604-1.208-0.216-3.191-0.569-4.399-0.785s-2.26-0.405-2.329-0.423c-0.069-0.017-0.233 0-0.362 0.052z"></path>
</symbol>
<symbol id="icon-PALESTRAS" viewBox="0 0 45 32">
<path d="M15.1 2.034v1.643h1.682l-0.016 6.588c-0.016 5.156 0 6.619 0.078 6.713 0.055 0.063 0.172 0.18 0.266 0.266 0.172 0.141 0.172 0.141 0.509-0.172 0.188-0.172 0.43-0.391 0.54-0.493 0.117-0.102 0.595-0.548 1.072-0.994 1.041-0.97 1.119-1.033 1.62-1.275 0.336-0.164 0.501-0.188 1.174-0.188 0.681 0 0.837 0.031 1.221 0.211 0.571 0.266 1.119 0.806 1.385 1.369 0.188 0.399 0.211 0.548 0.211 1.236 0 0.704-0.023 0.829-0.227 1.252-0.211 0.43-0.767 1.056-1.612 1.807-0.149 0.133-0.462 0.407-0.689 0.602l-0.415 0.368 3.599-0.016 3.607-0.023v3.45l-0.477 0.305c-1.745 1.134-1.424 3.638 0.555 4.366 1.072 0.399 2.394-0.156 2.957-1.236 0.18-0.336 0.211-0.493 0.211-1.056 0-0.548-0.031-0.735-0.196-1.056-0.219-0.454-0.634-0.884-1.088-1.142l-0.321-0.18v-3.411h12.362v-17.291h1.643v-3.286h-29.653v1.643zM30.349 26.015c0.422 0.211 0.516 0.939 0.164 1.291-0.227 0.227-0.642 0.274-0.97 0.117-0.446-0.211-0.555-0.853-0.211-1.244 0.25-0.29 0.657-0.352 1.017-0.164z"></path>
<path d="M7.652 6.22c-2.363 0.469-3.889 3.075-3.114 5.312 0.227 0.657 0.462 1.033 0.923 1.518 0.908 0.923 1.768 1.307 2.989 1.299 0.845 0 1.447-0.172 2.183-0.634 1.307-0.829 2.128-2.519 1.901-3.935-0.156-1.009-0.618-1.893-1.338-2.566-0.462-0.43-1.471-0.915-2.128-1.025-0.618-0.102-0.743-0.102-1.416 0.031z"></path>
<path d="M21.477 15.82c-0.086 0.047-0.329 0.25-0.54 0.446s-0.422 0.391-0.469 0.438c-0.086 0.078-0.61 0.555-1.854 1.713-0.329 0.305-0.759 0.712-0.955 0.892-0.203 0.188-0.399 0.329-0.438 0.313-0.039-0.008-0.634-0.555-1.314-1.205s-1.338-1.275-1.471-1.393c-0.125-0.117-0.415-0.391-0.642-0.602l-0.399-0.383h-10.719l-0.047 0.172c-0.031 0.102-0.102 0.352-0.156 0.571-0.063 0.211-0.203 0.704-0.321 1.095-0.117 0.383-0.368 1.252-0.555 1.917-0.196 0.665-0.383 1.314-0.422 1.447-0.047 0.125-0.203 0.673-0.352 1.213s-0.305 1.080-0.344 1.213c-0.18 0.602-0.203 0.548 0.266 0.775 0.892 0.422 3.004 1.377 3.051 1.377 0.016 0 0.289 0.117 0.602 0.266 1.729 0.814 2.355 1.064 2.644 1.080 1.041 0.039 1.713-1.142 1.142-2.003-0.156-0.25-0.649-0.587-2.973-2.042-0.407-0.258-0.751-0.501-0.751-0.54 0-0.156 0.579-1.236 0.689-1.283 0.133-0.047 0.485 0.125 1.111 0.54 0.743 0.485 1.33 0.853 1.385 0.853 0.023 0 0.156 0.086 0.29 0.188 0.133 0.094 0.352 0.235 0.485 0.305 0.399 0.211 1.033 0.822 1.267 1.252 0.634 1.127 0.438 2.582-0.462 3.505-0.696 0.72-1.745 1.009-2.785 0.775-0.399-0.086-2.48-0.962-2.637-1.103-0.047-0.039-0.125-0.070-0.18-0.070-0.086 0-0.102 0.399-0.086 2.050l0.023 2.058 9.819 0.039v-5.273c0-2.903 0.031-5.297 0.063-5.32 0.055-0.031 0.587 0.407 1.549 1.275 0.219 0.196 0.501 0.446 0.626 0.555s0.36 0.313 0.524 0.446c0.164 0.141 0.321 0.258 0.352 0.258s0.274-0.203 0.54-0.454c0.407-0.383 1.58-1.463 2.206-2.034 0.11-0.102 0.344-0.313 0.516-0.477 0.172-0.156 0.72-0.657 1.213-1.103 0.493-0.454 1.197-1.103 1.557-1.455 0.595-0.587 0.657-0.673 0.689-1.001 0.055-0.462-0.078-0.767-0.469-1.103-0.274-0.235-0.376-0.274-0.712-0.274-0.219 0-0.469 0.047-0.555 0.094z"></path>
</symbol>
<symbol id="icon-PROJETO" viewBox="0 0 34 32">
<path d="M2.951 0.398c-0.025 0.041-0.191 0.555-0.365 1.144-0.182 0.589-0.522 1.683-0.754 2.437-0.655 2.089-0.995 3.183-1.335 4.269l-0.307 0.995 8.365 0.025c4.593 0.008 12.12 0.008 16.713 0l8.365-0.025-0.307-0.995c-0.174-0.547-0.439-1.426-0.605-1.948s-0.481-1.55-0.713-2.28c-0.224-0.73-0.572-1.849-0.771-2.487l-0.356-1.161-13.944-0.025c-7.668-0.008-13.961 0.017-13.986 0.050zM7.378 2.073c0.249 0.050 0.456 0.099 0.473 0.116 0.025 0.017-0.174 1.127-0.439 2.454l-0.481 2.421-0.497-0.050c-0.274-0.025-0.522-0.075-0.555-0.116-0.025-0.033 0.166-1.144 0.431-2.462 0.265-1.326 0.489-2.412 0.489-2.429 0-0.033 0.133-0.017 0.58 0.066zM13.206 2.122c0.274 0.058 0.274 0.058 0.008 1.401-0.124 0.589-0.265 1.335-0.323 1.658-0.166 0.904-0.365 1.89-0.39 1.907-0.050 0.041-1.061-0.157-1.061-0.216 0-0.025 0.099-0.555 0.216-1.161 0.116-0.613 0.282-1.501 0.373-1.981 0.083-0.481 0.199-1.069 0.249-1.31l0.091-0.448 0.298 0.050c0.174 0.033 0.406 0.075 0.539 0.099zM21.546 2.421c0.050 0.24 0.166 0.829 0.257 1.31 0.083 0.481 0.249 1.368 0.365 1.981 0.116 0.605 0.199 1.127 0.174 1.169-0.017 0.033-0.199 0.083-0.398 0.108-0.191 0.025-0.415 0.075-0.489 0.099-0.108 0.041-0.149-0.041-0.232-0.431-0.050-0.265-0.124-0.647-0.174-0.854-0.141-0.671-0.555-2.852-0.613-3.25l-0.058-0.381 0.448-0.083c0.24-0.041 0.481-0.083 0.539-0.091 0.050 0 0.133 0.182 0.182 0.423zM27.117 2.462c0.514 2.495 0.87 4.386 0.829 4.435-0.025 0.033-0.274 0.083-0.547 0.108l-0.506 0.058-0.481-2.421c-0.257-1.326-0.464-2.437-0.439-2.454 0.041-0.041 0.68-0.174 0.904-0.191 0.099-0.008 0.166 0.108 0.24 0.464z"></path>
<path d="M0.199 10.487c-0.091 0.232 0.149 1.219 0.439 1.782 0.547 1.094 1.708 1.981 2.935 2.247 1.699 0.365 3.689-0.63 4.493-2.238 0.158-0.315 0.315-0.73 0.348-0.912 0.075-0.423 0.174-0.431 0.24-0.025 0.083 0.547 0.597 1.451 1.111 1.973 1.285 1.285 3.018 1.617 4.684 0.879 1.069-0.473 2.189-1.824 2.346-2.852 0.033-0.174 0.083-0.315 0.116-0.315s0.083 0.141 0.116 0.315c0.157 1.020 1.21 2.305 2.313 2.827 1.683 0.804 3.474 0.439 4.841-0.987 0.406-0.423 0.912-1.36 0.987-1.84 0.033-0.174 0.083-0.315 0.108-0.315 0.033 0 0.108 0.199 0.174 0.431 0.348 1.384 1.409 2.47 2.844 2.926 1.061 0.34 1.898 0.274 2.993-0.24 0.763-0.356 1.517-1.103 1.898-1.874 0.29-0.564 0.531-1.55 0.439-1.782-0.041-0.108-1.923-0.124-16.713-0.124s-16.672 0.017-16.713 0.124z"></path>
<path d="M1.26 23.188l0.025 8.439h31.254l0.025-8.439c0.008-4.634 0-8.431-0.017-8.431-0.025 0-0.232 0.116-0.456 0.265-0.232 0.141-0.713 0.34-1.069 0.439l-0.638 0.191-0.041 6.864c-0.025 3.78-0.066 6.864-0.099 6.848-0.041-0.008-3.805-0.017-8.373-0.017h-8.315l0.025-6.839 0.017-6.839h-0.763c-0.423-0.008-0.928-0.041-1.119-0.075l-0.356-0.066v13.82h-7.876l-0.017-6.848-0.025-6.856-0.456-0.116c-0.489-0.124-1.069-0.373-1.426-0.622-0.116-0.083-0.24-0.149-0.265-0.149s-0.041 3.797-0.033 8.431z"></path>
<path d="M20.336 20.253l-1.973 1.956 0.199 0.199 0.191 0.207 1.94-1.94c1.069-1.069 1.94-1.973 1.94-2.006 0-0.041-0.075-0.141-0.166-0.224-0.157-0.141-0.207-0.108-2.131 1.807z"></path>
<path d="M21.571 21.273c-2.852 2.86-2.918 2.935-2.777 3.101 0.083 0.091 0.174 0.166 0.207 0.166 0.083 0 5.869-5.795 5.869-5.878 0-0.066-0.282-0.348-0.34-0.332-0.017 0-1.351 1.326-2.96 2.943z"></path>
<path d="M9.119 21.554v1.658h1.078v-3.316h-1.078v1.658z"></path>
<path d="M22.549 22.508c-1.932 1.923-1.94 1.94-1.791 2.106 0.091 0.099 0.191 0.174 0.224 0.174 0.050 0 3.374-3.283 3.755-3.714 0.149-0.174 0.149-0.191 0.008-0.348-0.083-0.091-0.174-0.166-0.199-0.157-0.025 0-0.928 0.87-1.998 1.94z"></path>
</symbol>
<symbol id="icon-VISUAL-MERCH" viewBox="0 0 25 32">
<path d="M17.399 0.388c-0.029 0.025-0.29 0.182-0.589 0.353-0.294 0.167-0.604 0.344-0.687 0.388-0.079 0.044-0.334 0.196-0.564 0.329-0.348 0.211-1.531 0.893-2.159 1.252-0.093 0.054-0.294 0.172-0.447 0.265s-0.29 0.167-0.299 0.167c-0.010 0-0.28 0.152-0.599 0.344-0.314 0.187-0.579 0.344-0.594 0.344s-0.663 0.368-0.859 0.491c-0.088 0.054-0.898 0.52-1.104 0.638-0.083 0.044-0.427 0.245-0.761 0.442-0.991 0.579-2.719 1.575-4.147 2.395-0.54 0.309-1.001 0.579-1.031 0.599-0.025 0.020-0.157 0.098-0.294 0.172-0.132 0.074-0.442 0.25-0.687 0.393-0.24 0.142-0.859 0.501-1.374 0.795l-0.932 0.535-0.015 0.53c-0.015 0.564 0 0.614 0.231 0.731 0.069 0.039 0.334 0.187 0.584 0.334 0.618 0.363 0.584 0.344 0.928 0.535 0.172 0.093 0.309 0.187 0.309 0.211 0 0.020-0.054 0.059-0.113 0.088-0.142 0.064-0.28 0.29-0.28 0.452 0 0.088 0.039 0.137 0.142 0.182 0.177 0.074 0.329 0.005 0.402-0.182 0.029-0.083 0.074-0.118 0.132-0.098 0.044 0.015 0.304 0.093 0.574 0.172s0.589 0.191 0.702 0.25c0.206 0.103 0.27 0.201 0.133 0.201-0.108 0-0.172 0.162-0.172 0.437 0 0.137-0.020 0.25-0.039 0.25s-0.432-0.133-0.908-0.29c-0.481-0.162-1.129-0.363-1.443-0.452l-0.574-0.157-0.221 0.128c-0.245 0.137-0.373 0.285-0.417 0.481-0.025 0.103-0.005 0.147 0.098 0.216 0.123 0.079 0.137 0.079 0.29-0.005 0.093-0.049 0.177-0.128 0.186-0.172 0.020-0.079 0.054-0.079 0.456 0.025 0.24 0.064 0.623 0.177 0.849 0.255 0.363 0.123 0.398 0.147 0.319 0.201-0.054 0.034-0.137 0.093-0.191 0.133-0.098 0.069-0.098 0.118-0.083 6.91 0.020 6.169 0.025 6.847 0.098 6.925 0.044 0.054 0.098 0.26 0.128 0.515l0.054 0.427 0.344 0.231c0.191 0.133 0.422 0.28 0.515 0.334 0.231 0.133 0.339 0.201 0.515 0.324 0.083 0.054 0.27 0.167 0.417 0.25 0.147 0.079 0.471 0.255 0.712 0.393 1.355 0.751 1.615 0.844 1.88 0.663 0.074-0.049 0.191-0.118 0.27-0.157 0.172-0.083 0.201-0.206 0.167-0.717-0.010-0.226-0.005-0.412 0.015-0.412s0.221 0.098 0.452 0.221c0.491 0.255 0.574 0.25 1.085-0.093 0.133-0.088 0.133-0.098 0.133-0.599 0-0.28 0.015-0.51 0.039-0.51 0.020 0 0.221 0.103 0.447 0.221 0.221 0.123 0.442 0.221 0.486 0.221s0.231-0.093 0.417-0.206l0.344-0.206-0.029-0.506c-0.015-0.28-0.020-0.506-0.005-0.506 0.010 0 0.216 0.098 0.452 0.221s0.456 0.221 0.496 0.221c0.079 0 0.53-0.241 0.653-0.344 0.069-0.064 0.088-0.172 0.098-0.579l0.015-0.496 0.417 0.216c0.231 0.118 0.456 0.216 0.51 0.221 0.093 0 0.663-0.319 0.731-0.412 0.020-0.029 0.020-0.27 0.005-0.535l-0.034-0.476 0.142 0.064c0.079 0.034 0.285 0.133 0.456 0.221 0.167 0.083 0.344 0.157 0.383 0.157s0.226-0.079 0.412-0.177l0.339-0.177v-0.51c0-0.319 0.020-0.51 0.049-0.51s0.221 0.088 0.427 0.196c0.211 0.108 0.417 0.196 0.471 0.196 0.137 0 0.668-0.294 0.731-0.407 0.034-0.069 0.044-0.255 0.020-0.535-0.020-0.304-0.010-0.432 0.025-0.432 0.029 0 0.231 0.088 0.447 0.196s0.442 0.196 0.496 0.196c0.054 0 0.241-0.083 0.412-0.182l0.309-0.182v-1.070l0.412 0.226c0.545 0.299 0.589 0.294 1.080-0.029l0.201-0.128-0.015-1.59c-0.010-0.874-0.034-2.812-0.059-4.309l-0.039-2.724 0.294-0.883c0.334-1.006 0.658-1.669 0.986-2.022l0.147-0.157-0.059-0.506c-0.029-0.28-0.069-0.599-0.083-0.717-0.020-0.113-0.010-0.206 0.010-0.206 0.025 0 0.177 0.128 0.334 0.28 0.28 0.27 0.422 0.506 0.422 0.692 0 0.049 0.059 0.142 0.133 0.206 0.103 0.088 0.152 0.103 0.25 0.069 0.206-0.074 0.236-0.177 0.137-0.496-0.049-0.157-0.152-0.373-0.231-0.486-0.196-0.29-1.212-1.183-2.532-2.243-0.196-0.157-0.358-0.304-0.358-0.329s0.103-0.103 0.236-0.177c0.128-0.074 0.486-0.285 0.795-0.466 0.309-0.177 0.643-0.373 0.736-0.422 0.339-0.191 1.944-1.119 2.42-1.399l0.329-0.196v-0.53c0-0.525 0-0.535-0.133-0.628-0.079-0.049-0.157-0.103-0.186-0.113-0.025-0.010-0.26-0.142-0.515-0.294s-0.908-0.53-1.448-0.839c-0.54-0.309-1.188-0.687-1.438-0.829-0.746-0.437-1.045-0.609-1.409-0.815-0.186-0.108-0.712-0.407-1.163-0.667s-0.839-0.476-0.864-0.476c-0.020 0-0.059 0.020-0.083 0.044zM18.228 0.844c0.378 0.221 0.756 0.437 0.829 0.476 0.157 0.088 0.245 0.142 0.427 0.255 0.069 0.044 0.373 0.221 0.677 0.393 0.309 0.172 0.618 0.348 0.687 0.393 0.128 0.074 1.875 1.085 2.39 1.379 0.137 0.079 0.28 0.162 0.319 0.187s0.255 0.147 0.481 0.275c0.221 0.128 0.402 0.245 0.402 0.265 0 0.015-0.147 0.113-0.329 0.221-1.109 0.638-4.829 2.788-5.291 3.053-0.162 0.093-0.481 0.28-0.712 0.412-0.231 0.137-0.525 0.309-0.663 0.383-0.133 0.079-0.731 0.422-1.325 0.766s-1.291 0.746-1.546 0.893c-0.255 0.147-0.545 0.314-0.638 0.368-0.245 0.147-1.36 0.785-1.62 0.932-0.236 0.133-1.418 0.82-2.233 1.291-0.27 0.157-0.668 0.383-0.883 0.506-0.216 0.118-0.412 0.236-0.442 0.255-0.128 0.103-1.359 0.785-1.413 0.785-0.034 0-0.083-0.020-0.108-0.044-0.029-0.029-0.201-0.133-0.393-0.241-0.186-0.103-0.643-0.363-1.006-0.574s-0.928-0.535-1.252-0.726c-0.324-0.187-0.663-0.383-0.751-0.432-0.083-0.049-0.231-0.133-0.319-0.187-0.083-0.049-0.456-0.26-0.82-0.471s-1.016-0.589-1.443-0.834c-0.432-0.25-0.79-0.471-0.8-0.496s0.255-0.201 0.584-0.388c0.329-0.191 0.697-0.402 0.82-0.471 0.26-0.152 1.237-0.717 2.925-1.688 0.648-0.373 1.379-0.795 1.625-0.933 0.245-0.142 0.54-0.319 0.648-0.388 0.113-0.069 0.216-0.128 0.236-0.128 0.015 0 0.226-0.123 0.466-0.27s0.447-0.27 0.456-0.27c0.020 0 1.016-0.564 1.207-0.687 0.039-0.025 0.206-0.123 0.368-0.211 0.162-0.093 0.692-0.402 1.178-0.682 2.032-1.178 2.533-1.468 2.758-1.59 0.128-0.074 0.314-0.182 0.407-0.24s0.27-0.162 0.393-0.231c0.51-0.285 1.855-1.065 2.047-1.183 0.118-0.074 0.226-0.133 0.245-0.133 0.025 0 0.172-0.088 0.334-0.196 0.162-0.103 0.314-0.191 0.339-0.191 0.025-0.005 0.353 0.177 0.736 0.398zM24.53 5.040l-0.015 0.481-0.883 0.51c-0.996 0.574-1.733 1.001-1.988 1.144-0.093 0.054-0.525 0.304-0.957 0.555s-1.148 0.663-1.595 0.918c-0.447 0.255-0.923 0.535-1.060 0.618-0.137 0.088-0.275 0.157-0.309 0.157-0.029 0-0.054 0.020-0.054 0.049 0 0.025-0.020 0.049-0.039 0.049-0.044 0-0.211 0.093-2.979 1.693-0.972 0.564-1.85 1.070-1.948 1.124-0.098 0.059-0.373 0.216-0.614 0.358-0.236 0.137-0.51 0.294-0.604 0.348s-0.501 0.29-0.908 0.525c-0.402 0.236-0.834 0.481-0.957 0.55-0.123 0.064-0.329 0.182-0.466 0.27-0.299 0.187-0.525 0.314-0.785 0.447-0.108 0.059-0.206 0.118-0.221 0.133-0.015 0.020-0.177 0.113-0.368 0.211l-0.344 0.182-0.015-0.452c-0.005-0.245 0.005-0.466 0.025-0.486s0.24-0.152 0.481-0.294c0.245-0.137 0.653-0.373 0.908-0.525 0.255-0.147 0.908-0.525 1.448-0.834s1.369-0.79 1.841-1.065c0.471-0.275 0.957-0.555 1.080-0.623s0.496-0.285 0.834-0.481c0.339-0.196 1.055-0.609 1.595-0.923 0.54-0.309 1.271-0.731 1.62-0.932 0.353-0.201 0.761-0.437 0.908-0.515s0.294-0.162 0.319-0.187c0.029-0.020 0.324-0.196 0.663-0.393 0.339-0.191 0.903-0.52 1.252-0.721 0.353-0.201 0.815-0.466 1.031-0.589 0.216-0.118 0.452-0.26 0.525-0.309 0.069-0.054 0.137-0.093 0.152-0.093s0.319-0.172 0.677-0.383c0.363-0.211 0.692-0.398 0.731-0.417s0.275-0.157 0.515-0.299c0.245-0.147 0.461-0.27 0.481-0.27 0.020-0.005 0.029 0.211 0.025 0.471zM20.378 8.545c2.557 2.115 2.621 2.179 2.788 2.783 0.044 0.167 0.039 0.231-0.005 0.285-0.049 0.064-0.074 0.029-0.147-0.206-0.088-0.275-0.388-0.775-0.515-0.844-0.039-0.020-0.241-0.191-0.447-0.383-0.211-0.191-0.515-0.456-0.677-0.584-0.162-0.133-0.339-0.285-0.393-0.334s-0.27-0.226-0.481-0.393c-0.589-0.461-0.638-0.51-0.604-0.569 0.059-0.088 0.103-0.064 0.481 0.245zM20.005 8.574c0.334 0.275 1.222 1.011 1.472 1.217 0.977 0.8 1.379 1.256 1.468 1.679 0.049 0.241-0.059 0.201-0.123-0.039-0.088-0.329-0.26-0.55-0.766-0.982-0.26-0.226-0.663-0.579-0.898-0.78-0.231-0.201-0.564-0.481-0.741-0.614s-0.344-0.265-0.373-0.294c-0.029-0.025-0.123-0.103-0.206-0.172-0.088-0.069-0.157-0.142-0.157-0.162 0-0.074 0.133-0.015 0.324 0.147zM18.935 9.728c1.374 1.104 2.282 1.939 2.434 2.238 0.044 0.088 0.098 0.27 0.113 0.407 0.025 0.196 0.015 0.241-0.044 0.241-0.049 0-0.088-0.069-0.108-0.201-0.034-0.226-0.285-0.633-0.515-0.854-0.088-0.083-0.206-0.191-0.265-0.25-0.059-0.054-0.25-0.221-0.427-0.368-0.177-0.142-0.329-0.28-0.344-0.294s-0.383-0.319-0.825-0.677c-0.707-0.579-0.859-0.741-0.692-0.741 0.029 0 0.329 0.226 0.672 0.501zM18.253 9.507c0.211 0.162 0.231 0.177 0.643 0.515 0.177 0.142 0.344 0.28 0.373 0.309 0.029 0.025 0.162 0.137 0.294 0.245 0.294 0.245 1.124 0.982 1.31 1.173 0.177 0.172 0.314 0.437 0.358 0.687 0.039 0.236-0.049 0.206-0.098-0.029-0.044-0.226-0.304-0.604-0.54-0.785-0.108-0.088-0.226-0.182-0.255-0.211-0.28-0.255-0.481-0.432-0.731-0.638-0.162-0.133-0.383-0.319-0.491-0.417-0.113-0.093-0.417-0.348-0.677-0.559s-0.476-0.398-0.476-0.402c0-0.059 0.137 0 0.29 0.113zM18.14 9.752c0.294 0.172 0.913 0.648 1.517 1.168 0.137 0.118 0.299 0.255 0.363 0.304 0.069 0.059 0.123 0.157 0.128 0.241 0.005 0.079 0.039 0.437 0.074 0.79l0.069 0.653-0.128 0.133c-0.069 0.079-0.147 0.182-0.177 0.236-0.049 0.093-0.054 0.088-0.108-0.049-0.182-0.481-0.476-0.839-1.139-1.384-0.123-0.103-0.476-0.398-0.785-0.653-0.304-0.26-0.663-0.559-0.8-0.663-0.344-0.28-0.432-0.373-0.383-0.417 0.103-0.103 0.883-0.535 0.962-0.54 0.049 0 0.231 0.083 0.407 0.182zM17.315 10.758c0.368 0.304 0.682 0.564 0.697 0.579 0.025 0.029 0.515 0.442 0.726 0.614 0.658 0.535 1.031 1.040 1.055 1.433 0.015 0.27-0.079 0.241-0.172-0.059-0.108-0.339-0.358-0.687-0.712-0.986-0.157-0.133-0.334-0.29-0.402-0.353s-0.28-0.241-0.466-0.393c-0.191-0.152-0.383-0.314-0.422-0.358s-0.182-0.167-0.319-0.27c-0.692-0.535-0.898-0.756-0.707-0.756 0.025 0 0.348 0.25 0.721 0.55zM16.766 10.65c0.108 0.093 0.28 0.236 0.388 0.319 0.103 0.079 0.211 0.172 0.241 0.196 0.029 0.029 0.285 0.241 0.569 0.476s0.604 0.506 0.712 0.604c0.108 0.098 0.27 0.236 0.358 0.304 0.26 0.206 0.672 1.045 0.51 1.045-0.029 0-0.069-0.074-0.083-0.162-0.074-0.334-0.231-0.53-0.874-1.099-0.358-0.319-0.707-0.623-0.775-0.677-0.51-0.417-0.663-0.54-0.682-0.564-0.015-0.015-0.133-0.113-0.27-0.221-0.378-0.294-0.564-0.476-0.535-0.525 0.029-0.044 0.064-0.025 0.442 0.304zM1.423 11.018c0.555 0.319 1.090 0.633 1.188 0.692 0.103 0.064 0.196 0.118 0.206 0.118 0.015 0 0.142 0.069 0.285 0.157 0.314 0.187 0.555 0.324 1.634 0.947 0.461 0.26 0.859 0.496 0.883 0.515 0.029 0.020 0.162 0.098 0.294 0.172 0.137 0.074 0.358 0.201 0.491 0.275 0.137 0.079 0.393 0.226 0.574 0.324l0.329 0.187 0.015 0.476c0.010 0.265-0.005 0.481-0.029 0.481s-0.201-0.093-0.393-0.211c-0.191-0.118-0.751-0.442-1.242-0.721-0.496-0.285-1.168-0.677-1.497-0.869-0.334-0.196-0.658-0.383-0.726-0.417s-0.334-0.187-0.589-0.334c-0.255-0.152-0.923-0.54-1.482-0.859l-1.021-0.584v-0.486c0-0.265 0.015-0.471 0.039-0.461 0.020 0.010 0.486 0.28 1.040 0.599zM15.082 11.293c0.059 0.059 0.275 0.231 0.476 0.388s0.412 0.324 0.466 0.373c0.054 0.054 0.265 0.236 0.466 0.407 0.785 0.668 0.908 0.775 1.158 1.026 0.275 0.275 0.481 0.702 0.452 0.937-0.020 0.182-0.108 0.142-0.157-0.079-0.069-0.294-0.437-0.8-0.8-1.094-0.182-0.147-0.373-0.314-0.427-0.368s-0.255-0.226-0.447-0.383c-0.186-0.157-0.393-0.329-0.452-0.378-0.098-0.083-0.427-0.348-0.859-0.697-0.182-0.147-0.201-0.236-0.059-0.236 0.039 0 0.123 0.044 0.182 0.103zM14.881 11.47c0.245 0.191 0.815 0.658 1.099 0.898 0.133 0.113 0.348 0.294 0.481 0.407 0.633 0.535 1.055 0.932 1.168 1.099 0.133 0.206 0.236 0.471 0.236 0.614 0 0.157-0.083 0.054-0.123-0.142-0.034-0.187-0.186-0.432-0.388-0.633-0.314-0.309-2.056-1.777-2.518-2.12-0.152-0.118-0.245-0.255-0.167-0.255 0.020 0 0.113 0.059 0.211 0.133zM14.518 11.578c0.074 0.049 0.221 0.137 0.329 0.191 0.231 0.118 0.991 0.721 1.752 1.389 0.123 0.108 0.137 0.172 0.211 0.756 0.093 0.82 0.093 0.977-0.010 1.060-0.044 0.039-0.118 0.133-0.167 0.211-0.079 0.133-0.093 0.137-0.118 0.049-0.015-0.049-0.098-0.231-0.182-0.402-0.133-0.27-0.241-0.388-0.844-0.908-0.378-0.334-0.932-0.8-1.227-1.040-0.692-0.569-0.947-0.81-0.888-0.839 0.029-0.010 0.26-0.142 0.515-0.29s0.476-0.27 0.481-0.27c0.010 0 0.079 0.039 0.147 0.093zM13.394 12.28c0.079 0.064 0.221 0.177 0.324 0.26 0.633 0.506 1.87 1.566 2.164 1.86 0.265 0.27 0.373 0.422 0.456 0.638 0.059 0.162 0.103 0.334 0.093 0.388-0.029 0.196-0.113 0.128-0.206-0.167-0.123-0.393-0.344-0.663-0.991-1.217-0.294-0.25-0.589-0.506-0.658-0.564-0.348-0.314-1.286-1.070-1.433-1.163-0.059-0.039-0.010-0.142 0.069-0.142 0.025 0 0.108 0.049 0.182 0.108zM13.845 12.982c0.329 0.26 1.104 0.928 1.796 1.541 0.255 0.221 0.461 0.569 0.53 0.874 0.020 0.098 0.015 0.162-0.015 0.162s-0.069-0.074-0.083-0.162c-0.079-0.353-0.363-0.707-0.957-1.198-0.093-0.074-0.226-0.191-0.294-0.255s-0.29-0.25-0.491-0.412c-0.201-0.167-0.447-0.368-0.545-0.447-0.093-0.083-0.319-0.27-0.501-0.417s-0.329-0.299-0.329-0.339c0-0.039 0.108 0.020 0.26 0.147 0.147 0.118 0.427 0.344 0.628 0.506zM19.004 12.815c0.172 0.167 0.25 0.294 0.309 0.506 0.059 0.196 0.118 0.299 0.211 0.358 0.074 0.044 0.137 0.088 0.147 0.093s-0.025 0.093-0.079 0.201c-0.054 0.103-0.236 0.594-0.402 1.094l-0.309 0.908 0.034 3.141c0.015 1.728 0.044 3.661 0.059 4.299l0.034 1.158-0.28 0.152c-0.147 0.088-0.324 0.157-0.383 0.157-0.064 0-0.304-0.103-0.54-0.226l-0.432-0.221-0.005-1.409c-0.005-0.775-0.020-2.459-0.039-3.74l-0.029-2.331 0.285-0.883c0.304-0.928 0.692-1.728 0.977-2.022l0.152-0.157-0.059-0.53c-0.034-0.29-0.074-0.628-0.088-0.751l-0.029-0.221 0.118 0.098c0.064 0.054 0.221 0.196 0.348 0.324zM2.856 12.918c0.344 0.147 0.417 0.255 0.108 0.157-0.506-0.157-0.712-0.137-0.78 0.079-0.015 0.054-0.064 0.098-0.103 0.098-0.113 0-0.079-0.241 0.059-0.373 0.103-0.108 0.152-0.123 0.304-0.093 0.098 0.020 0.285 0.079 0.412 0.133zM2.336 13.237c-0.049 0.049-0.093-0.025-0.049-0.088 0.029-0.054 0.039-0.054 0.059 0 0.010 0.034 0.005 0.074-0.010 0.088zM12.574 13.973c0.52 0.437 1.016 0.854 1.094 0.923 0.083 0.074 0.285 0.255 0.456 0.402 0.211 0.187 0.348 0.363 0.452 0.569 0.162 0.334 0.196 0.623 0.074 0.623-0.044 0-0.074-0.044-0.074-0.108 0-0.167-0.241-0.614-0.442-0.82-0.098-0.098-0.309-0.29-0.466-0.427-0.162-0.142-0.506-0.437-0.766-0.663s-0.697-0.589-0.967-0.805c-0.476-0.378-0.609-0.54-0.407-0.506 0.054 0.010 0.525 0.373 1.045 0.81zM12.123 13.939c0.344 0.275 0.81 0.653 0.834 0.687 0.015 0.015 0.182 0.157 0.368 0.319 0.618 0.53 0.903 0.825 1.006 1.026 0.118 0.255 0.177 0.52 0.108 0.52-0.025 0-0.064-0.083-0.083-0.182-0.059-0.319-0.314-0.618-1.031-1.217-0.162-0.137-0.304-0.26-0.319-0.275s-0.28-0.236-0.589-0.486c-0.309-0.255-0.574-0.476-0.589-0.491s-0.103-0.083-0.196-0.157c-0.27-0.201-0.398-0.334-0.368-0.388 0.020-0.025 0.167 0.069 0.339 0.211 0.167 0.142 0.402 0.339 0.52 0.432zM11.347 13.654c0.304 0.177 0.638 0.407 0.854 0.604 0.029 0.025 0.108 0.093 0.172 0.147 0.766 0.633 0.977 0.825 0.977 0.874 0 0.074 0.137 1.183 0.172 1.369 0.015 0.098-0.020 0.182-0.152 0.344-0.206 0.245-0.265 0.28-0.265 0.152 0-0.108-0.172-0.432-0.344-0.653-0.069-0.088-0.471-0.456-0.893-0.82-0.427-0.358-0.839-0.717-0.918-0.79-0.083-0.074-0.334-0.275-0.564-0.452s-0.417-0.344-0.417-0.368c-0.005-0.044 0.888-0.594 0.986-0.609 0.015-0.005 0.191 0.088 0.393 0.201zM1.625 13.796c0.388 0.108 0.982 0.294 1.32 0.412s0.692 0.236 0.785 0.26l0.172 0.049-0.196 0.005c-0.113 0-0.442-0.083-0.761-0.196-0.574-0.201-1.325-0.437-1.826-0.569-0.157-0.039-0.27-0.093-0.255-0.118 0.034-0.059-0.044-0.074 0.761 0.157zM4.461 13.831c0.226 0.137 0.309 0.255 0.186 0.255-0.039 0-0.162 0.064-0.27 0.147-0.113 0.079-0.26 0.147-0.329 0.147-0.118 0-0.123-0.015-0.123-0.27 0-0.241 0.015-0.275 0.137-0.339 0.167-0.093 0.137-0.098 0.398 0.059zM1.153 13.86c0.245 0.069 0.883 0.265 1.418 0.442 0.54 0.177 1.050 0.324 1.144 0.324 0.196 0 0.437-0.093 0.599-0.241 0.064-0.054 0.162-0.103 0.211-0.103 0.294 0 0.712 0.358 0.918 0.785 0.314 0.648 0.623 1.001 1.502 1.723 1.683 1.374 2.199 1.85 2.341 2.155 0.108 0.241 0.157 0.491 0.093 0.491-0.029 0-0.054-0.029-0.054-0.064 0-0.039-0.069-0.201-0.152-0.368-0.182-0.363-0.579-0.731-2.253-2.086-0.643-0.515-0.829-0.687-1.031-0.957-0.103-0.137-0.319-0.28-1.006-0.668-0.054-0.029-0.26-0.152-0.452-0.27-0.294-0.177-0.407-0.216-0.638-0.226-0.157-0.005-0.452-0.069-0.653-0.142-0.614-0.221-1.924-0.628-2.204-0.682-0.26-0.054-0.265-0.054-0.407 0.108-0.142 0.157-0.255 0.167-0.206 0.015 0.083-0.255 0.152-0.324 0.339-0.348 0.029 0 0.245 0.049 0.491 0.113zM0.712 14.135c-0.015 0.025-0.064 0.049-0.103 0.049s-0.059-0.025-0.044-0.049c0.015-0.029 0.064-0.049 0.103-0.049s0.059 0.020 0.044 0.049zM10.199 14.39c0.182 0.137 0.339 0.265 0.353 0.285 0.015 0.015 0.236 0.201 0.491 0.412 1.32 1.085 1.767 1.526 1.904 1.909 0.128 0.334 0.133 0.456 0.034 0.496-0.044 0.015-0.074 0-0.074-0.039 0-0.167-0.231-0.643-0.407-0.844-0.241-0.275-1.772-1.595-2.577-2.223-0.187-0.147-0.231-0.25-0.103-0.25 0.025 0 0.196 0.113 0.378 0.255zM4.957 14.233c0 0.064-0.098 0.064-0.196 0-0.059-0.039-0.044-0.049 0.064-0.049 0.074 0 0.133 0.020 0.133 0.049zM10.361 14.856c0.746 0.609 1.31 1.090 1.448 1.217 0.054 0.054 0.226 0.206 0.378 0.339 0.309 0.26 0.545 0.633 0.599 0.937 0.044 0.26-0.034 0.177-0.142-0.147-0.079-0.245-0.368-0.594-0.771-0.933-0.098-0.083-0.294-0.25-0.442-0.373-0.412-0.353-1.163-0.977-1.463-1.217-0.348-0.28-0.398-0.329-0.398-0.402s0.020-0.054 0.79 0.579zM5.369 14.479c0.093 0.108 0.24 0.324 0.319 0.486 0.368 0.721 0.55 0.918 1.796 1.924 0.314 0.255 1.551 1.325 1.718 1.492 0.339 0.334 0.589 0.996 0.398 1.070-0.059 0.025-0.079 0-0.079-0.083 0-0.123-0.231-0.594-0.378-0.785-0.118-0.147-0.986-0.923-1.566-1.389-0.157-0.133-0.324-0.27-0.368-0.309s-0.221-0.186-0.393-0.319c-0.363-0.285-0.81-0.717-0.957-0.932-0.059-0.083-0.191-0.314-0.294-0.515-0.108-0.201-0.28-0.461-0.388-0.574-0.196-0.201-0.196-0.221-0.020-0.255 0.020 0 0.113 0.083 0.211 0.191zM15.769 14.93c0.054 0.069 0.133 0.245 0.177 0.388 0.064 0.201 0.123 0.285 0.236 0.344l0.147 0.074-0.108 0.196c-0.059 0.103-0.245 0.594-0.417 1.090l-0.309 0.898 0.034 3.053c0.015 1.679 0.044 3.617 0.059 4.304l0.034 1.252-0.142 0.074c-0.079 0.039-0.177 0.093-0.216 0.128-0.191 0.147-0.344 0.128-0.815-0.103l-0.461-0.226-0.005-1.286c0-0.707-0.020-2.4-0.039-3.764l-0.029-2.479 0.299-0.888c0.167-0.486 0.373-1.016 0.461-1.178 0.088-0.157 0.196-0.358 0.241-0.447 0.044-0.083 0.152-0.236 0.245-0.339l0.167-0.182-0.059-0.545c-0.034-0.299-0.074-0.633-0.088-0.741l-0.029-0.196 0.265 0.226c0.142 0.123 0.304 0.28 0.353 0.348zM6.513 15.023c0.78 0.447 0.874 0.491 0.977 0.437 0.098-0.054 0.142-0.044 0.348 0.079 0.128 0.079 0.29 0.167 0.358 0.196 0.123 0.059 1.59 1.261 1.703 1.404 0.034 0.039 0.093 0.353 0.137 0.707 0.039 0.348 0.083 0.692 0.098 0.766 0.010 0.074-0.005 0.162-0.039 0.196s-0.118 0.137-0.196 0.226c-0.118 0.142-0.137 0.152-0.162 0.074-0.108-0.309-0.27-0.569-0.53-0.829-0.27-0.265-1.237-1.099-1.953-1.688-0.152-0.123-0.393-0.319-0.54-0.442-0.142-0.118-0.373-0.358-0.506-0.535-0.275-0.353-0.682-1.085-0.609-1.085 0.025 0 0.437 0.221 0.913 0.496zM3.828 14.969c0 0.025-0.029 0.049-0.069 0.049s-0.088-0.025-0.103-0.049c-0.015-0.029 0.015-0.049 0.069-0.049 0.059 0 0.103 0.020 0.103 0.049zM4.854 15.367c0.692 0.402 0.883 0.55 1.207 0.928 0.093 0.108 0.079 0.103-0.172-0.034-0.334-0.182-1.418-0.805-1.718-0.991-0.231-0.137-0.334-0.348-0.172-0.348 0.049 0 0.432 0.201 0.854 0.447zM8.309 15.195c0.079 0.074 0.309 0.265 0.515 0.427 0.304 0.241 1.286 1.060 1.384 1.163 0.015 0.015 0.211 0.191 0.437 0.393 0.442 0.398 0.692 0.795 0.692 1.114 0 0.231-0.128 0.211-0.172-0.025-0.054-0.304-0.27-0.638-0.609-0.937-0.177-0.162-0.383-0.344-0.452-0.402-0.373-0.339-1.772-1.497-1.978-1.639-0.054-0.039-0.079-0.098-0.064-0.142 0.044-0.108 0.088-0.098 0.245 0.049zM8.187 15.431c0.152 0.123 0.344 0.275 0.417 0.344 0.079 0.064 0.231 0.196 0.344 0.285 0.54 0.437 1.556 1.325 1.742 1.531 0.118 0.128 0.255 0.324 0.309 0.437 0.098 0.221 0.123 0.452 0.044 0.402-0.025-0.015-0.049-0.064-0.049-0.108 0-0.108-0.177-0.466-0.285-0.584-0.128-0.133-0.834-0.761-0.986-0.879-0.432-0.324-1.87-1.556-1.87-1.595 0-0.079 0.044-0.059 0.334 0.167zM12.285 16.785c0.157 0.172 0.241 0.319 0.28 0.496 0.034 0.142 0.093 0.26 0.142 0.28 0.196 0.074 0.221 0.152 0.113 0.348-0.059 0.103-0.241 0.584-0.407 1.065l-0.294 0.879 0.025 2.945c0.020 1.62 0.044 3.568 0.059 4.324l0.034 1.379-0.658 0.324-0.447-0.216c-0.241-0.118-0.456-0.236-0.481-0.265-0.020-0.025-0.054-1.737-0.074-3.804l-0.034-3.755 0.28-0.834c0.294-0.864 0.653-1.61 0.947-1.978l0.172-0.211-0.059-0.525c-0.029-0.29-0.074-0.613-0.088-0.717l-0.029-0.196 0.152 0.108c0.079 0.059 0.245 0.221 0.368 0.353zM8.721 18.557c0.29 0.275 0.383 0.412 0.452 0.672 0.034 0.128 0.108 0.241 0.201 0.304 0.083 0.059 0.147 0.088 0.147 0.069s0.010-0.025 0.025-0.010c0.015 0.015-0.020 0.108-0.074 0.201-0.113 0.186-0.29 0.663-0.574 1.531l-0.177 0.54 0.034 2.699c0.015 1.482 0.044 3.416 0.059 4.294l0.034 1.595-0.29 0.147c-0.157 0.079-0.344 0.137-0.412 0.128-0.064-0.010-0.299-0.108-0.515-0.226l-0.393-0.206-0.029-2.032c-0.015-1.119-0.034-2.827-0.039-3.794l-0.005-1.767 0.294-0.869c0.294-0.864 0.574-1.443 0.918-1.894l0.177-0.231-0.059-0.52c-0.034-0.285-0.074-0.599-0.088-0.707-0.034-0.231-0.005-0.226 0.314 0.074z"></path>
</symbol>
<symbol id="icon-VITRINISMO" viewBox="0 0 12 32">
<path d="M5.987 0.194c-0.058 0.024-0.155 0.092-0.218 0.155-0.107 0.107-0.112 0.151-0.126 0.952l-0.015 0.845-0.204-0.034c-0.257-0.044-0.825-0.248-1.025-0.369-0.233-0.141-0.442-0.121-0.631 0.063-0.155 0.155-0.16 0.18-0.214 0.753-0.034 0.384-0.083 0.646-0.136 0.733-0.223 0.384-1.229 0.767-2.496 0.961-0.277 0.039-0.524 0.165-0.68 0.345-0.117 0.131-0.121 0.155-0.117 0.816 0 0.631 0.015 0.724 0.18 1.287 0.165 0.578 0.427 1.287 0.597 1.607 0.044 0.083 0.175 0.296 0.296 0.471 0.665 0.976 1.034 2.054 1.034 3.045 0 0.617-0.117 1.025-0.539 1.899-0.452 0.927-0.486 1-0.699 1.622-0.253 0.728-0.403 1.389-0.495 2.132-0.068 0.549-0.073 0.738-0.024 1.263 0.097 1.044 0.369 1.869 0.738 2.239 0.18 0.18 0.257 0.209 1.335 0.529 1.19 0.35 2.209 0.539 2.923 0.539h0.257v4.132l-0.18 0.35c-0.228 0.442-0.612 1.068-0.796 1.301-0.078 0.097-0.141 0.194-0.141 0.214s-0.131 0.194-0.291 0.393c-0.16 0.194-0.33 0.403-0.374 0.466-0.175 0.218-0.821 0.83-1.107 1.044-0.16 0.121-0.437 0.296-0.617 0.384-0.354 0.18-0.481 0.32-0.486 0.544-0.005 0.194 0.189 0.432 0.384 0.471 0.282 0.058 1.005-0.364 1.763-1.034 0.228-0.204 0.52-0.49 0.651-0.636 0.126-0.151 0.291-0.34 0.364-0.418 0.214-0.243 0.733-0.952 0.733-1 0-0.024 0.024-0.044 0.049-0.044 0.029 0 0.049 0.578 0.049 1.632 0 1.131 0.015 1.661 0.053 1.734 0.097 0.17 0.253 0.272 0.432 0.277 0.155 0 0.223-0.039 0.447-0.257 0.005-0.005 0.024-0.772 0.039-1.704l0.024-1.695 0.146 0.214c0.452 0.675 1.282 1.588 1.918 2.117 0.359 0.301 1.214 0.791 1.374 0.791 0.112 0 0.257-0.078 0.388-0.209 0.146-0.146 0.136-0.442-0.019-0.592-0.063-0.058-0.267-0.189-0.456-0.291-0.656-0.354-1.248-0.884-1.889-1.7-0.49-0.622-0.418-0.52-0.772-1.059-0.243-0.374-0.388-0.617-0.651-1.102-0.049-0.097-0.063-0.563-0.063-2.248v-2.122h0.257c0.981 0 2.938-0.437 3.89-0.869 0.233-0.107 0.34-0.189 0.452-0.35 0.219-0.325 0.388-0.753 0.534-1.335 0.117-0.466 0.131-0.622 0.131-1.331 0.005-1.617-0.422-2.952-1.549-4.856-0.252-0.422-0.495-1.059-0.558-1.471-0.068-0.413-0.039-1.229 0.049-1.564 0.141-0.505 0.422-1.073 0.758-1.51 0.806-1.054 1.651-3.093 1.544-3.72-0.087-0.52-0.282-0.665-1.015-0.787-0.908-0.155-1.981-0.51-2.146-0.719-0.083-0.102-0.199-0.563-0.257-1.059-0.068-0.544-0.16-0.709-0.422-0.757-0.126-0.024-0.238-0.005-0.422 0.073-0.403 0.18-0.864 0.33-1.107 0.364l-0.233 0.034v-1.656l-0.131-0.141c-0.151-0.165-0.325-0.218-0.486-0.151z"></path>
</symbol>
<symbol id="icon-menu" viewBox="0 0 26 32">
<path d="M3.2 5.333h19.2c0.589 0 1.067-0.478 1.067-1.067s-0.478-1.067-1.067-1.067v0h-19.2c-0.589 0-1.067 0.478-1.067 1.067s0.478 1.067 1.067 1.067v0z"></path>
<path d="M3.2 13.867h19.2c0.589 0 1.067-0.478 1.067-1.067s-0.478-1.067-1.067-1.067v0h-19.2c-0.589 0-1.067 0.478-1.067 1.067s0.478 1.067 1.067 1.067v0z"></path>
<path d="M3.2 22.4h19.2c0.589 0 1.067-0.478 1.067-1.067s-0.478-1.067-1.067-1.067v0h-19.2c-0.589 0-1.067 0.478-1.067 1.067s0.478 1.067 1.067 1.067v0z"></path>
</symbol>
<symbol id="icon-whatsapp-2" viewBox="0 0 32 32">
<path d="M16.041 8.229c-4.241 0-7.689 3.448-7.691 7.688-0.001 1.731 0.507 3.027 1.359 4.383l-0.776 2.837 2.909-0.764c1.304 0.773 2.548 1.237 4.193 1.239 4.237 0 7.689-3.449 7.691-7.688 0.001-4.249-3.433-7.693-7.685-7.695zM20.564 19.221c-0.192 0.54-1.116 1.032-1.56 1.099-0.399 0.060-0.903 0.084-1.456-0.092-0.336-0.107-0.767-0.249-1.317-0.487-2.319-1.001-3.832-3.336-3.948-3.489-0.116-0.155-0.944-1.253-0.944-2.391s0.597-1.697 0.809-1.928c0.212-0.231 0.461-0.289 0.616-0.289l0.443 0.008c0.141 0.007 0.332-0.053 0.52 0.397 0.192 0.463 0.655 1.6 0.712 1.716s0.096 0.251 0.019 0.405c-0.077 0.155-0.116 0.251-0.231 0.385l-0.347 0.405c-0.116 0.115-0.236 0.24-0.101 0.472s0.599 0.988 1.285 1.601c0.883 0.788 1.628 1.032 1.859 1.147s0.365 0.096 0.501-0.057c0.135-0.155 0.577-0.675 0.732-0.907 0.155-0.231 0.308-0.193 0.52-0.116s1.348 0.636 1.579 0.752 0.385 0.173 0.443 0.269c0.060 0.096 0.060 0.559-0.133 1.099zM16 0c-8.836 0-16 7.164-16 16s7.164 16 16 16 16-7.164 16-16-7.164-16-16-16zM16.039 25.173c-1.548 0-3.073-0.389-4.424-1.125l-4.903 1.285 1.312-4.793c-0.809-1.403-1.236-2.995-1.235-4.624 0.001-5.1 4.151-9.249 9.249-9.249 2.475 0.001 4.797 0.964 6.543 2.712 1.747 1.748 2.708 4.072 2.707 6.544-0.001 5.1-4.151 9.251-9.249 9.251z"></path>
</symbol>
<symbol id="icon-close" viewBox="0 0 32 32">
<path d="M25.333 8.547l-1.88-1.88-7.453 7.453-7.453-7.453-1.88 1.88 7.453 7.453-7.453 7.453 1.88 1.88 7.453-7.453 7.453 7.453 1.88-1.88-7.453-7.453z"></path>
</symbol>
<symbol id="icon-gmail" viewBox="0 0 32 32">
<path fill="#d14836" style="fill: var(--color1, #d14836)" d="M32 6v20c0 1.133-0.867 2-2 2h-2v-18.151l-12 8.617-12-8.617v18.151h-2c-1.135 0-2-0.867-2-2v-20c0-0.567 0.216-1.067 0.575-1.424 0.359-0.363 0.86-0.576 1.425-0.576h0.667l13.333 9.667 13.333-9.667h0.667c0.567 0 1.067 0.216 1.425 0.576 0.36 0.357 0.575 0.857 0.575 1.424z"></path>
</symbol>
<symbol id="icon-keyboard_arrow_right" viewBox="0 0 24 24">
<path d="M8.578 16.594l4.594-4.594-4.594-4.594 1.406-1.406 6 6-6 6z"></path>
</symbol>
<symbol id="icon-keyboard_arrow_left" viewBox="0 0 24 24">
<path d="M15.422 16.594l-1.406 1.406-6-6 6-6 1.406 1.406-4.594 4.594z"></path>
</symbol>
<symbol id="icon-checkmark" viewBox="0 0 20 20">
<path d="M0 11l2-2 5 5 11-11 2 2-13 13z"></path>
</symbol>
<symbol id="icon-whatsapp-3" viewBox="0 0 20 20">
<path fill="#e5e5e5" style="fill: var(--color2, #e5e5e5)" d="M0.465 20c-0.112 0-0.222-0.044-0.303-0.126-0.107-0.108-0.148-0.265-0.108-0.412l1.3-4.748c-0.809-1.464-1.236-3.12-1.236-4.801 0.002-5.466 4.451-9.914 9.917-9.914 2.651 0.001 5.142 1.034 7.015 2.908s2.903 4.365 2.902 7.014c-0.002 5.467-4.451 9.914-9.917 9.914 0 0-0.004 0-0.004 0-1.597-0.001-3.179-0.39-4.589-1.127l-4.87 1.277c-0.036 0.009-0.072 0.014-0.108 0.014z"></path>
<path fill="#64b161" style="fill: var(--color3, #64b161)" d="M0.795 19.243l1.3-4.747c-0.802-1.389-1.224-2.965-1.223-4.579 0.002-5.051 4.112-9.16 9.162-9.16 2.451 0.001 4.752 0.955 6.481 2.686s2.682 4.033 2.681 6.48c-0.002 5.051-4.113 9.16-9.162 9.16-0 0 0 0 0 0h-0.004c-1.533-0.001-3.040-0.385-4.378-1.115z"></path>
<path fill="#fff" style="fill: var(--color4, #fff)" d="M0.465 19.574l1.346-4.917c-0.831-1.439-1.267-3.071-1.267-4.744 0.002-5.232 4.26-9.488 9.491-9.488 2.539 0.001 4.922 0.989 6.714 2.783s2.778 4.178 2.777 6.713c-0.002 5.232-4.26 9.489-9.491 9.489-0 0 0 0 0 0h-0.004c-1.588-0.001-3.149-0.399-4.535-1.155zM5.729 16.537l0.288 0.171c1.211 0.719 2.599 1.099 4.015 1.1h0.003c4.348 0 7.887-3.538 7.888-7.887 0.001-2.107-0.819-4.089-2.308-5.58s-3.47-2.312-5.577-2.313c-4.351 0-7.89 3.538-7.892 7.886-0.001 1.49 0.416 2.941 1.206 4.197l0.188 0.298-0.797 2.91z"></path>
<path fill="#fff" style="fill: var(--color4, #fff)" d="M7.663 5.947c-0.178-0.395-0.365-0.403-0.534-0.41-0.138-0.006-0.296-0.006-0.454-0.006s-0.415 0.060-0.632 0.297c-0.217 0.237-0.83 0.811-0.83 1.978s0.85 2.294 0.968 2.453c0.119 0.158 1.641 2.629 4.051 3.58 2.003 0.79 2.411 0.633 2.846 0.593s1.403-0.574 1.601-1.127c0.198-0.554 0.198-1.028 0.138-1.128s-0.217-0.158-0.455-0.277-1.403-0.692-1.62-0.771c-0.217-0.079-0.376-0.119-0.534 0.119s-0.612 0.771-0.751 0.929c-0.138 0.159-0.277 0.178-0.514 0.060s-1.001-0.369-1.907-1.177c-0.705-0.629-1.181-1.405-1.319-1.642s-0.002-0.354 0.104-0.484c0.192-0.233 0.514-0.653 0.593-0.811s0.040-0.297-0.020-0.415c-0.059-0.119-0.52-1.291-0.731-1.76z"></path>
</symbol>
<symbol id="icon-pinterest" viewBox="0 0 20 20">
<path d="M8.617 13.227c-0.526 2.754-1.167 5.394-3.068 6.773-0.586-4.162 0.861-7.287 1.534-10.605-1.147-1.93 0.138-5.812 2.555-4.855 2.975 1.176-2.576 7.172 1.15 7.922 3.891 0.781 5.479-6.75 3.066-9.199-3.485-3.538-10.146-0.083-9.326 4.982 0.199 1.238 1.478 1.613 0.511 3.322-2.231-0.494-2.897-2.254-2.811-4.6 0.138-3.84 3.449-6.527 6.771-6.9 4.201-0.471 8.144 1.543 8.689 5.494 0.613 4.461-1.896 9.293-6.389 8.945-1.218-0.095-1.728-0.699-2.682-1.279z"></path>
</symbol>
<symbol id="icon-home3" viewBox="0 0 32 32">
<path d="M32 19l-6-6v-9h-4v5l-6-6-16 16v1h4v10h10v-6h4v6h10v-10h4z"></path>
</symbol>
<symbol id="icon-bullhorn" viewBox="0 0 32 32">
<path d="M32 13.414c0-6.279-1.837-11.373-4.109-11.413 0.009-0 0.018-0.001 0.027-0.001h-2.592c0 0-6.088 4.573-14.851 6.367-0.268 1.415-0.438 3.102-0.438 5.047s0.171 3.631 0.438 5.047c8.763 1.794 14.851 6.367 14.851 6.367h2.592c-0.009 0-0.018-0.001-0.027-0.001 2.272-0.040 4.109-5.134 4.109-11.413zM27.026 23.102c-0.293 0-0.61-0.304-0.773-0.486-0.395-0.439-0.775-1.124-1.1-1.979-0.727-1.913-1.127-4.478-1.127-7.223s0.4-5.309 1.127-7.223c0.325-0.855 0.705-1.54 1.1-1.979 0.163-0.182 0.48-0.486 0.773-0.486s0.61 0.304 0.773 0.486c0.395 0.439 0.775 1.124 1.1 1.979 0.727 1.913 1.127 4.479 1.127 7.223s-0.4 5.309-1.127 7.223c-0.325 0.855-0.705 1.54-1.1 1.979-0.163 0.181-0.48 0.486-0.773 0.486zM7.869 13.414c0-1.623 0.119-3.201 0.345-4.659-1.48 0.205-2.779 0.323-4.386 0.323-2.096 0-2.096 0-2.096 0l-1.733 2.959v2.755l1.733 2.959c0 0 0 0 2.096 0 1.606 0 2.905 0.118 4.386 0.323-0.226-1.458-0.345-3.036-0.345-4.659zM11.505 20.068l-4-0.766 2.558 10.048c0.132 0.52 0.648 0.782 1.146 0.583l3.705-1.483c0.498-0.199 0.698-0.749 0.444-1.221l-3.853-7.161zM27.026 17.148c-0.113 0-0.235-0.117-0.298-0.187-0.152-0.169-0.299-0.433-0.424-0.763-0.28-0.738-0.434-1.726-0.434-2.784s0.154-2.046 0.434-2.784c0.125-0.33 0.272-0.593 0.424-0.763 0.063-0.070 0.185-0.187 0.298-0.187s0.235 0.117 0.298 0.187c0.152 0.169 0.299 0.433 0.424 0.763 0.28 0.737 0.434 1.726 0.434 2.784s-0.154 2.046-0.434 2.784c-0.125 0.33-0.272 0.593-0.424 0.763-0.063 0.070-0.185 0.187-0.298 0.187z"></path>
</symbol>
<symbol id="icon-phone" viewBox="0 0 32 32">
<path d="M22 20c-2 2-2 4-4 4s-4-2-6-4-4-4-4-6 2-2 4-4-4-8-6-8-6 6-6 6c0 4 4.109 12.109 8 16s12 8 16 8c0 0 6-4 6-6s-6-8-8-6z"></path>
</symbol>
<symbol id="icon-envelop" viewBox="0 0 32 32">
<path d="M29 4h-26c-1.65 0-3 1.35-3 3v20c0 1.65 1.35 3 3 3h26c1.65 0 3-1.35 3-3v-20c0-1.65-1.35-3-3-3zM12.461 17.199l-8.461 6.59v-15.676l8.461 9.086zM5.512 8h20.976l-10.488 7.875-10.488-7.875zM12.79 17.553l3.21 3.447 3.21-3.447 6.58 8.447h-19.579l6.58-8.447zM19.539 17.199l8.461-9.086v15.676l-8.461-6.59z"></path>
</symbol>
<symbol id="icon-quotes-left" viewBox="0 0 32 32">
<path d="M7.031 14c3.866 0 7 3.134 7 7s-3.134 7-7 7-7-3.134-7-7l-0.031-1c0-7.732 6.268-14 14-14v4c-2.671 0-5.182 1.040-7.071 2.929-0.364 0.364-0.695 0.751-0.995 1.157 0.357-0.056 0.724-0.086 1.097-0.086zM25.031 14c3.866 0 7 3.134 7 7s-3.134 7-7 7-7-3.134-7-7l-0.031-1c0-7.732 6.268-14 14-14v4c-2.671 0-5.182 1.040-7.071 2.929-0.364 0.364-0.695 0.751-0.995 1.157 0.358-0.056 0.724-0.086 1.097-0.086z"></path>
</symbol>
<symbol id="icon-quotes-right" viewBox="0 0 32 32">
<path d="M25 20c-3.866 0-7-3.134-7-7s3.134-7 7-7 7 3.134 7 7l0.031 1c0 7.732-6.268 14-14 14v-4c2.671 0 5.182-1.040 7.071-2.929 0.364-0.364 0.695-0.75 0.995-1.157-0.357 0.056-0.724 0.086-1.097 0.086zM7 20c-3.866 0-7-3.134-7-7s3.134-7 7-7 7 3.134 7 7l0.031 1c0 7.732-6.268 14-14 14v-4c2.671 0 5.182-1.040 7.071-2.929 0.364-0.364 0.695-0.75 0.995-1.157-0.357 0.056-0.724 0.086-1.097 0.086z"></path>
</symbol>
<symbol id="icon-clipboard" viewBox="0 0 32 32">
<path d="M29 4h-9c0-2.209-1.791-4-4-4s-4 1.791-4 4h-9c-0.552 0-1 0.448-1 1v26c0 0.552 0.448 1 1 1h26c0.552 0 1-0.448 1-1v-26c0-0.552-0.448-1-1-1zM16 2c1.105 0 2 0.895 2 2s-0.895 2-2 2c-1.105 0-2-0.895-2-2s0.895-2 2-2zM28 30h-24v-24h4v3c0 0.552 0.448 1 1 1h14c0.552 0 1-0.448 1-1v-3h4v24z"></path>
<path d="M14 26.828l-6.414-7.414 1.828-1.828 4.586 3.586 8.586-7.586 1.829 1.828z"></path>
</symbol>
<symbol id="icon-menu1" viewBox="0 0 32 32">
<path d="M2 6h28v6h-28zM2 14h28v6h-28zM2 22h28v6h-28z"></path>
</symbol>
<symbol id="icon-warning" viewBox="0 0 32 32">
<path d="M16 2.899l13.409 26.726h-26.819l13.409-26.726zM16 0c-0.69 0-1.379 0.465-1.903 1.395l-13.659 27.222c-1.046 1.86-0.156 3.383 1.978 3.383h27.166c2.134 0 3.025-1.522 1.978-3.383h0l-13.659-27.222c-0.523-0.93-1.213-1.395-1.903-1.395v0z"></path>
<path d="M18 26c0 1.105-0.895 2-2 2s-2-0.895-2-2c0-1.105 0.895-2 2-2s2 0.895 2 2z"></path>
<path d="M16 22c-1.105 0-2-0.895-2-2v-6c0-1.105 0.895-2 2-2s2 0.895 2 2v6c0 1.105-0.895 2-2 2z"></path>
</symbol>
<symbol id="icon-notification" viewBox="0 0 32 32">
<path d="M16 3c-3.472 0-6.737 1.352-9.192 3.808s-3.808 5.72-3.808 9.192c0 3.472 1.352 6.737 3.808 9.192s5.72 3.808 9.192 3.808c3.472 0 6.737-1.352 9.192-3.808s3.808-5.72 3.808-9.192c0-3.472-1.352-6.737-3.808-9.192s-5.72-3.808-9.192-3.808zM16 0v0c8.837 0 16 7.163 16 16s-7.163 16-16 16c-8.837 0-16-7.163-16-16s7.163-16 16-16zM14 22h4v4h-4zM14 6h4v12h-4z"></path>
</symbol>
<symbol id="icon-blocked" viewBox="0 0 32 32">
<path d="M27.314 4.686c-3.022-3.022-7.040-4.686-11.314-4.686s-8.292 1.664-11.314 4.686c-3.022 3.022-4.686 7.040-4.686 11.314s1.664 8.292 4.686 11.314c3.022 3.022 7.040 4.686 11.314 4.686s8.292-1.664 11.314-4.686c3.022-3.022 4.686-7.040 4.686-11.314s-1.664-8.292-4.686-11.314zM28 16c0 2.588-0.824 4.987-2.222 6.949l-16.727-16.727c1.962-1.399 4.361-2.222 6.949-2.222 6.617 0 12 5.383 12 12zM4 16c0-2.588 0.824-4.987 2.222-6.949l16.727 16.727c-1.962 1.399-4.361 2.222-6.949 2.222-6.617 0-12-5.383-12-12z"></path>
</symbol>
<symbol id="icon-play2" viewBox="0 0 32 32">
<path d="M16 0c-8.837 0-16 7.163-16 16s7.163 16 16 16 16-7.163 16-16-7.163-16-16-16zM16 29c-7.18 0-13-5.82-13-13s5.82-13 13-13 13 5.82 13 13-5.82 13-13 13zM12 9l12 7-12 7z"></path>
</symbol>
<symbol id="icon-arrow-left2" viewBox="0 0 32 32">
<path d="M12.586 27.414l-10-10c-0.781-0.781-0.781-2.047 0-2.828l10-10c0.781-0.781 2.047-0.781 2.828 0s0.781 2.047 0 2.828l-6.586 6.586h19.172c1.105 0 2 0.895 2 2s-0.895 2-2 2h-19.172l6.586 6.586c0.39 0.39 0.586 0.902 0.586 1.414s-0.195 1.024-0.586 1.414c-0.781 0.781-2.047 0.781-2.828 0z"></path>
</symbol>
<symbol id="icon-circle-right" viewBox="0 0 32 32">
<path d="M16 0c-8.837 0-16 7.163-16 16s7.163 16 16 16 16-7.163 16-16-7.163-16-16-16zM16 29c-7.18 0-13-5.82-13-13s5.82-13 13-13 13 5.82 13 13-5.82 13-13 13z"></path>
<path d="M11.086 22.086l2.829 2.829 8.914-8.914-8.914-8.914-2.828 2.828 6.086 6.086z"></path>
</symbol>
<symbol id="icon-circle-left" viewBox="0 0 32 32">
<path d="M16 32c8.837 0 16-7.163 16-16s-7.163-16-16-16-16 7.163-16 16 7.163 16 16 16zM16 3c7.18 0 13 5.82 13 13s-5.82 13-13 13-13-5.82-13-13 5.82-13 13-13z"></path>
<path d="M20.914 9.914l-2.829-2.829-8.914 8.914 8.914 8.914 2.828-2.828-6.086-6.086z"></path>
</symbol>
<symbol id="icon-facebook" viewBox="0 0 32 32">
<path d="M19 6h5v-6h-5c-3.86 0-7 3.14-7 7v3h-4v6h4v16h6v-16h5l1-6h-6v-3c0-0.542 0.458-1 1-1z"></path>
</symbol>
<symbol id="icon-instagram" viewBox="0 0 32 32">
<path d="M16 2.881c4.275 0 4.781 0.019 6.462 0.094 1.563 0.069 2.406 0.331 2.969 0.55 0.744 0.288 1.281 0.638 1.837 1.194 0.563 0.563 0.906 1.094 1.2 1.838 0.219 0.563 0.481 1.412 0.55 2.969 0.075 1.688 0.094 2.194 0.094 6.463s-0.019 4.781-0.094 6.463c-0.069 1.563-0.331 2.406-0.55 2.969-0.288 0.744-0.637 1.281-1.194 1.837-0.563 0.563-1.094 0.906-1.837 1.2-0.563 0.219-1.413 0.481-2.969 0.55-1.688 0.075-2.194 0.094-6.463 0.094s-4.781-0.019-6.463-0.094c-1.563-0.069-2.406-0.331-2.969-0.55-0.744-0.288-1.281-0.637-1.838-1.194-0.563-0.563-0.906-1.094-1.2-1.837-0.219-0.563-0.481-1.413-0.55-2.969-0.075-1.688-0.094-2.194-0.094-6.463s0.019-4.781 0.094-6.463c0.069-1.563 0.331-2.406 0.55-2.969 0.288-0.744 0.638-1.281 1.194-1.838 0.563-0.563 1.094-0.906 1.838-1.2 0.563-0.219 1.412-0.481 2.969-0.55 1.681-0.075 2.188-0.094 6.463-0.094zM16 0c-4.344 0-4.887 0.019-6.594 0.094-1.7 0.075-2.869 0.35-3.881 0.744-1.056 0.412-1.95 0.956-2.837 1.85-0.894 0.888-1.438 1.781-1.85 2.831-0.394 1.019-0.669 2.181-0.744 3.881-0.075 1.713-0.094 2.256-0.094 6.6s0.019 4.887 0.094 6.594c0.075 1.7 0.35 2.869 0.744 3.881 0.413 1.056 0.956 1.95 1.85 2.837 0.887 0.887 1.781 1.438 2.831 1.844 1.019 0.394 2.181 0.669 3.881 0.744 1.706 0.075 2.25 0.094 6.594 0.094s4.888-0.019 6.594-0.094c1.7-0.075 2.869-0.35 3.881-0.744 1.050-0.406 1.944-0.956 2.831-1.844s1.438-1.781 1.844-2.831c0.394-1.019 0.669-2.181 0.744-3.881 0.075-1.706 0.094-2.25 0.094-6.594s-0.019-4.887-0.094-6.594c-0.075-1.7-0.35-2.869-0.744-3.881-0.394-1.063-0.938-1.956-1.831-2.844-0.887-0.887-1.781-1.438-2.831-1.844-1.019-0.394-2.181-0.669-3.881-0.744-1.712-0.081-2.256-0.1-6.6-0.1v0z"></path>
<path d="M16 7.781c-4.537 0-8.219 3.681-8.219 8.219s3.681 8.219 8.219 8.219 8.219-3.681 8.219-8.219c0-4.537-3.681-8.219-8.219-8.219zM16 21.331c-2.944 0-5.331-2.387-5.331-5.331s2.387-5.331 5.331-5.331c2.944 0 5.331 2.387 5.331 5.331s-2.387 5.331-5.331 5.331z"></path>
<path d="M26.462 7.456c0 1.060-0.859 1.919-1.919 1.919s-1.919-0.859-1.919-1.919c0-1.060 0.859-1.919 1.919-1.919s1.919 0.859 1.919 1.919z"></path>
</symbol>
<symbol id="icon-whatsapp" viewBox="0 0 32 32">
<path d="M27.281 4.65c-2.994-3-6.975-4.65-11.219-4.65-8.738 0-15.85 7.112-15.85 15.856 0 2.794 0.731 5.525 2.119 7.925l-2.25 8.219 8.406-2.206c2.319 1.262 4.925 1.931 7.575 1.931h0.006c0 0 0 0 0 0 8.738 0 15.856-7.113 15.856-15.856 0-4.238-1.65-8.219-4.644-11.219zM16.069 29.050v0c-2.369 0-4.688-0.637-6.713-1.837l-0.481-0.288-4.987 1.306 1.331-4.863-0.313-0.5c-1.325-2.094-2.019-4.519-2.019-7.012 0-7.269 5.912-13.181 13.188-13.181 3.519 0 6.831 1.375 9.319 3.862 2.488 2.494 3.856 5.8 3.856 9.325-0.006 7.275-5.919 13.188-13.181 13.188zM23.294 19.175c-0.394-0.2-2.344-1.156-2.706-1.288s-0.625-0.2-0.894 0.2c-0.262 0.394-1.025 1.288-1.256 1.556-0.231 0.262-0.462 0.3-0.856 0.1s-1.675-0.619-3.188-1.969c-1.175-1.050-1.975-2.35-2.206-2.744s-0.025-0.613 0.175-0.806c0.181-0.175 0.394-0.463 0.594-0.694s0.262-0.394 0.394-0.662c0.131-0.262 0.069-0.494-0.031-0.694s-0.894-2.15-1.219-2.944c-0.319-0.775-0.65-0.669-0.894-0.681-0.231-0.012-0.494-0.012-0.756-0.012s-0.694 0.1-1.056 0.494c-0.363 0.394-1.387 1.356-1.387 3.306s1.419 3.831 1.619 4.1c0.2 0.262 2.794 4.269 6.769 5.981 0.944 0.406 1.681 0.65 2.256 0.837 0.95 0.3 1.813 0.256 2.494 0.156 0.762-0.113 2.344-0.956 2.675-1.881s0.331-1.719 0.231-1.881c-0.094-0.175-0.356-0.275-0.756-0.475z"></path>
</symbol>
<symbol id="icon-youtube" viewBox="0 0 32 32">
<path d="M31.681 9.6c0 0-0.313-2.206-1.275-3.175-1.219-1.275-2.581-1.281-3.206-1.356-4.475-0.325-11.194-0.325-11.194-0.325h-0.012c0 0-6.719 0-11.194 0.325-0.625 0.075-1.987 0.081-3.206 1.356-0.963 0.969-1.269 3.175-1.269 3.175s-0.319 2.588-0.319 5.181v2.425c0 2.587 0.319 5.181 0.319 5.181s0.313 2.206 1.269 3.175c1.219 1.275 2.819 1.231 3.531 1.369 2.563 0.244 10.881 0.319 10.881 0.319s6.725-0.012 11.2-0.331c0.625-0.075 1.988-0.081 3.206-1.356 0.962-0.969 1.275-3.175 1.275-3.175s0.319-2.587 0.319-5.181v-2.425c-0.006-2.588-0.325-5.181-0.325-5.181zM12.694 20.15v-8.994l8.644 4.513-8.644 4.481z"></path>
</symbol>
<symbol id="icon-linkedin2" viewBox="0 0 32 32">
<path d="M12 12h5.535v2.837h0.079c0.77-1.381 2.655-2.837 5.464-2.837 5.842 0 6.922 3.637 6.922 8.367v9.633h-5.769v-8.54c0-2.037-0.042-4.657-3.001-4.657-3.005 0-3.463 2.218-3.463 4.509v8.688h-5.767v-18z"></path>
<path d="M2 12h6v18h-6v-18z"></path>
<path d="M8 7c0 1.657-1.343 3-3 3s-3-1.343-3-3c0-1.657 1.343-3 3-3s3 1.343 3 3z"></path>
</symbol>
<symbol id="icon-pinterest2" viewBox="0 0 32 32">
<path d="M16 0c-8.825 0-16 7.175-16 16s7.175 16 16 16 16-7.175 16-16-7.175-16-16-16zM16 29.863c-1.431 0-2.806-0.219-4.106-0.619 0.563-0.919 1.412-2.431 1.725-3.631 0.169-0.65 0.863-3.294 0.863-3.294 0.45 0.863 1.775 1.594 3.175 1.594 4.181 0 7.194-3.844 7.194-8.625 0-4.581-3.738-8.006-8.544-8.006-5.981 0-9.156 4.019-9.156 8.387 0 2.031 1.081 4.563 2.813 5.369 0.262 0.125 0.4 0.069 0.463-0.188 0.044-0.194 0.281-1.131 0.387-1.575 0.031-0.137 0.019-0.262-0.094-0.4-0.575-0.694-1.031-1.975-1.031-3.162 0-3.056 2.313-6.019 6.256-6.019 3.406 0 5.788 2.319 5.788 5.637 0 3.75-1.894 6.35-4.356 6.35-1.363 0-2.381-1.125-2.050-2.506 0.394-1.65 1.15-3.425 1.15-4.613 0-1.063-0.569-1.95-1.756-1.95-1.394 0-2.506 1.438-2.506 3.369 0 1.225 0.412 2.056 0.412 2.056s-1.375 5.806-1.625 6.887c-0.281 1.2-0.169 2.881-0.050 3.975-5.156-2.012-8.813-7.025-8.813-12.9 0-7.656 6.206-13.863 13.862-13.863s13.863 6.206 13.863 13.863c0 7.656-6.206 13.863-13.863 13.863z"></path>
</symbol>
</defs>
</svg>
